<svg width="167" height="133" viewBox="0 0 167 133" fill="none" xmlns="http://www.w3.org/2000/svg">
<path d="M135.58 85.5332C136.284 85.4899 136.965 85.2206 137.545 84.7553C138.125 84.2901 138.583 83.6471 138.866 82.8982C139.108 81.9454 138.238 81.6091 137.947 82.674C137.704 83.2569 137.337 83.7584 136.881 84.1312C136.424 84.5039 135.893 84.7357 135.338 84.8047C135.145 84.8607 134.758 85.5516 135.58 85.5332Z" fill="#191919"/>
<path d="M137.03 77.4617C136.745 76.2267 135.289 77.3496 136.16 78.5266C136.401 78.8628 137.326 78.7487 137.03 77.4617Z" fill="#191919"/>
<path d="M134.952 72.2496C134.274 72.4707 134.275 73.3705 135.144 73.3705C136.116 73.2874 137.092 73.4616 137.997 73.88C138.059 73.9043 138.127 73.9031 138.189 73.8767C138.25 73.8503 138.302 73.8002 138.336 73.7347C138.37 73.6693 138.383 73.5924 138.374 73.5169C138.365 73.4414 138.334 73.3718 138.286 73.3195C137.83 72.8729 137.295 72.5461 136.72 72.3614C136.144 72.1767 135.541 72.1386 134.952 72.2496Z" fill="#191919"/>
<path d="M132.341 75.0478C131.695 74.6245 130.934 74.5041 130.214 74.7115C129.775 74.8797 129.828 75.4401 130.263 75.4962C130.83 75.519 131.389 75.6713 131.906 75.9445C132.485 76.2288 132.627 75.3362 132.341 75.0478Z" fill="#191919"/>
<path d="M133.113 78.9201C132.976 80.166 132.96 81.4259 133.065 82.676C133.259 84.1332 136.11 83.0683 135.676 82.2837C135.434 81.8354 134.468 82.7932 133.838 82.4519C133.671 81.2853 133.606 80.1019 133.646 78.9201C133.646 78.8382 133.618 78.7597 133.568 78.7018C133.518 78.6439 133.45 78.6113 133.38 78.6113C133.309 78.6113 133.241 78.6439 133.191 78.7018C133.142 78.7597 133.113 78.8382 133.113 78.9201Z" fill="#191919"/>
<path d="M132.147 79.3114C132.87 78.8019 132.196 77.0696 131.568 77.6301C131.084 77.9663 131.275 79.9238 132.147 79.3114Z" fill="#191919"/>
<path d="M127.265 83.8519C127.942 86.43 129.585 89.7926 131.47 91.3618C132.34 92.0904 132.775 91.3618 131.91 90.4091C130.051 88.5936 128.649 86.2315 127.85 83.5707C127.817 83.4808 127.756 83.4095 127.678 83.3723C127.601 83.3351 127.514 83.3352 127.436 83.3725C127.359 83.4098 127.297 83.4813 127.265 83.5712C127.233 83.6611 127.233 83.7621 127.265 83.8519Z" fill="#191919"/>
<path d="M142.975 86.5421C143.211 86.3108 143.023 85.8696 142.733 86.0326C140.027 87.3777 138.142 92.2535 139.447 95.7293C139.64 96.1776 140.172 96.0095 140.075 95.5041C139.35 91.1938 140.305 89.1528 142.975 86.5421Z" fill="#191919"/>
<path d="M126.831 87.6069C127.21 89.008 127.83 90.3059 128.652 91.4229C129.474 92.54 130.482 93.4532 131.616 94.108C132.244 94.4442 132.873 93.8838 131.906 93.1552C129.917 91.8336 128.342 89.8117 127.411 87.3827C127.169 86.9344 126.724 87.1055 126.831 87.6069Z" fill="#191919"/>
<path d="M128.908 83.7398C129.996 86.3473 131.821 88.444 134.08 89.6805C137.222 91.3058 137.851 88.7838 140.558 86.7101C140.848 86.486 140.702 86.0376 140.363 86.1497C137.947 86.8222 137.705 90.5211 134.322 88.6156C132.348 87.3438 130.685 85.5119 129.488 83.2915C129.432 83.217 129.355 83.1687 129.27 83.1557C129.185 83.1426 129.1 83.1657 129.029 83.2206C128.958 83.2754 128.906 83.3584 128.884 83.4539C128.862 83.5495 128.871 83.6511 128.908 83.7398Z" fill="#191919"/>
<path d="M133.114 98.4844C133.356 98.9318 133.984 98.5405 133.79 98.0921C132.872 95.2329 129.199 94.6164 127.894 92.0944C127.652 91.6461 127.217 92.0944 127.366 92.5428C128.715 95.509 131.475 95.4499 133.114 98.4844Z" fill="#191919"/>
<path d="M128.57 74.996C128.747 77.7433 129.218 80.4545 129.972 83.0673C130.068 83.4596 130.697 83.2915 130.6 82.8432C129.581 79.0561 129.171 75.0838 129.392 71.1249C129.734 71.2691 130.098 71.3292 130.461 71.3014C130.824 71.2737 131.178 71.1586 131.501 70.9636C131.824 70.7686 132.108 70.4979 132.336 70.1687C132.563 69.8394 132.729 69.4589 132.823 69.0512C134.129 71.293 137.996 71.0688 139.204 69.0512C138.866 72.1337 141.959 77.5699 142.588 76.5611C142.878 76.0516 143.168 75.4963 143.7 75.3282C145.681 74.5996 146.02 78.971 144.811 79.5875C144.284 79.8677 143.216 79.078 143.845 81.0447C144.679 83.612 145.389 86.2315 145.971 88.8908C146.068 89.3952 146.6 89.171 146.6 88.6666C146.174 85.9485 145.527 83.2834 144.666 80.7074C145.116 80.6408 145.533 80.3996 145.849 80.0229C146.165 79.6463 146.361 79.1566 146.406 78.6337C146.972 78.3955 147.477 77.997 147.875 77.4745C148.274 76.9519 148.553 76.322 148.687 75.6422C148.822 74.9624 148.808 74.2543 148.646 73.5826C148.484 72.9108 148.18 72.2967 147.76 71.7964C150.371 68.77 149.887 63.7811 145.875 63.8371C146.123 62.9192 146.127 61.9355 145.885 61.0153C145.642 60.0951 145.166 59.2813 144.517 58.6811C143.869 58.0808 143.079 57.7221 142.251 57.6521C141.424 57.5821 140.597 57.804 139.88 58.2888C138.43 53.7492 132.485 55.0943 132.34 59.1294C128.57 55.5426 123.687 61.147 126.587 65.4624C123.302 65.5235 123.012 74.6037 128.57 74.996Z" fill="#191919"/>
<path d="M135.194 101.619C135.483 101.995 135.865 102.259 136.287 102.376C136.709 102.494 137.153 102.458 137.558 102.276C137.962 102.093 138.309 101.771 138.552 101.353C138.795 100.935 138.921 100.441 138.915 99.9377C139.715 99.5753 140.491 99.1444 141.235 98.6487C141.127 97.8871 140.88 97.161 140.51 96.519C139.758 96.7448 139.029 97.0642 138.335 97.4718C138.056 97.0703 137.674 96.7824 137.244 96.6497C136.814 96.517 136.358 96.5464 135.944 96.7337C135.529 96.921 135.177 97.2563 134.937 97.6913C134.698 98.1263 134.584 98.6382 134.613 99.1531C134.129 99.4894 133.598 99.8817 133.404 100.05C133.38 100.824 133.565 101.588 133.932 102.236C134.323 102.067 134.803 101.847 135.194 101.619ZM135.628 99.1531C135.781 97.1916 138.001 97.4157 137.804 99.8817C137.659 101.899 135.445 101.508 135.628 99.1531Z" fill="#191919"/>
<path d="M124.608 120.563C124.463 117.76 124.367 111.146 124.995 108.68C125.092 108.232 125.575 108.12 125.522 109.073C125.36 112.883 125.392 116.701 125.619 120.507C129.269 120.37 132.922 120.577 136.543 121.123C134.996 116.415 132.821 101.787 132.579 99.8814C132.337 97.9759 129.051 96.6859 127.306 94.7244C123.246 96.4057 117.59 101.675 113.192 108.848C114.81 112.938 116.135 117.174 117.155 121.515C119.622 121.038 122.11 120.72 124.608 120.563Z" fill="#191919"/>
<path d="M147.374 89.9047C145.392 92.3146 143.701 93.4915 140.704 93.5475C141.332 98.5405 145.103 105.822 148.39 111.147C148.904 109.88 149.277 108.543 149.501 107.167C149.598 106.383 150.028 106.663 150.028 107.111C149.949 108.88 149.623 110.621 149.061 112.268C153.026 118.545 158.201 124.598 160.134 132.221C162.309 129.026 170.817 111.536 164.92 99.9376C161.441 92.9311 153.852 89.3442 147.374 89.9047Z" fill="#191919"/>
<path d="M154.479 140.568C157.912 140.624 159.506 140.624 162.406 140.624C163.906 136.309 165.452 127.846 165.984 120.84C162.89 132.445 158.201 137.937 154.479 140.568Z" fill="#191919"/>
<path d="M118.902 122.244C116.774 122.737 117.307 123.533 118.081 123.309C123.592 121.964 131.035 122.244 136.546 123.309C137.078 123.421 137.319 122.468 136.788 122.356C131.325 121.291 124.36 120.981 118.902 122.244Z" fill="#191919"/>
<path d="M152.933 120.787C153.173 121.014 153.658 120.675 153.461 120.277C148.893 113.976 144.832 107.203 141.328 100.045C141.135 99.6523 140.555 100.045 140.7 100.437C142.541 104.7 149.767 117.794 152.933 120.787Z" fill="#191919"/>
<path d="M158.927 132.669C159.12 132.109 158.487 131.661 158.25 132.16C156.8 135.13 155.06 138.1 152.257 139.558C149.405 141.071 146.262 140.622 144.184 137.764C139.689 131.599 136.402 111.984 135.193 103.071C135.096 102.511 134.42 102.735 134.516 103.295C135.531 111.814 138.822 131.88 143.604 138.437C147.266 143.497 154.994 142.246 158.927 132.669Z" fill="#191919"/>
<path d="M86.856 110.305C87.1943 110.083 86.9526 109.632 86.566 109.693C84.8259 110.086 83.6659 110.646 83.1334 112.665C82.5963 114.503 82.4634 116.468 82.7467 118.381C82.8434 118.891 83.4717 118.774 83.52 118.269C83.5684 116.083 83.2784 115.635 83.9067 113.225C84.4384 110.978 85.3119 111.324 86.856 110.305Z" fill="#191919"/>
<path d="M87.4839 101.731C87.4309 102.946 87.4633 104.164 87.5806 105.374C87.6289 105.822 88.3056 105.766 88.3539 105.374C88.3758 104.157 88.3274 102.94 88.2089 101.731C88.1597 101.337 87.4918 101.337 87.4839 101.731Z" fill="#191919"/>
<path d="M91.1574 101.283C92.4484 100.468 94.4969 98.8728 95.3625 96.9103C95.6042 96.3498 95.5567 96.1817 95.2175 95.6773C94.7902 95.1171 94.2853 94.6436 93.7235 94.2762C93.1444 93.9399 93.0952 94.1641 92.6611 94.5004C89.8085 96.7982 85.4549 96.3498 82.4608 94.5564C82.2191 94.3883 81.5424 94.8366 82.1708 95.229C85.8934 97.4157 89.9043 97.808 93.3369 95.0048C93.89 95.4115 94.3941 95.9015 94.8361 96.4619C93.6913 98.3484 92.1416 99.8556 90.3401 100.834C89.6635 99.8816 88.9868 98.9849 88.3101 98.0322C87.2898 96.7187 86.8715 99.0827 85.2158 101.002C83.5406 100.043 81.9396 98.9179 80.4307 97.6399C80.9141 97.0784 81.3491 96.519 81.8324 95.9575C82.1224 95.6773 81.7358 95.1169 81.393 95.3461C80.8835 95.7742 80.4137 96.2625 79.9913 96.8033C79.8181 97.0346 79.7311 97.336 79.7492 97.6416C79.7673 97.9472 79.8891 98.232 80.088 98.4336C80.8614 99.2743 84.7764 102.189 85.4057 101.852C86.469 101.241 87.049 99.6106 87.774 98.6018C88.4507 99.3864 89.3691 100.956 89.9007 101.572C90.2391 102.011 90.8156 101.499 91.1574 101.283Z" fill="#191919"/>
<path d="M96.2812 78.7509C96.4565 77.8885 96.5213 77.001 96.4737 76.1168C96.377 75.164 95.6045 75.108 95.652 76.1728C95.7487 77.5739 95.3145 79.1992 95.4595 79.5355C95.7979 80.4892 97.0062 78.9241 97.5854 79.9288C98.407 81.498 96.6187 84.4684 95.507 83.6837C95.2179 83.4596 94.9797 83.6277 94.782 84.3563C94.4865 85.3375 94.0975 86.2774 93.622 87.1585C91.0119 91.5859 85.7435 92.7068 82.8434 88.8907C81.8209 87.3554 81.1552 85.5415 80.9101 83.6226C80.9025 83.4964 80.8666 83.3746 80.8061 83.2693C80.7455 83.1641 80.6623 83.0789 80.5647 83.0224C80.4671 82.9658 80.3585 82.9397 80.2495 82.9466C80.1405 82.9536 80.035 82.9934 79.9434 83.0622C78.9284 83.9589 78.01 82.6138 77.9133 80.9325C77.7683 78.6337 78.9767 78.4655 79.8467 79.2502C79.9008 79.3011 79.9674 79.331 80.037 79.3357C80.1065 79.3403 80.1756 79.3195 80.2344 79.2761C80.2932 79.2327 80.3388 79.1689 80.3646 79.0939C80.3904 79.0188 80.3953 78.9363 80.3784 78.8578C80.33 78.3484 80.0884 75.4952 80.0884 74.8787C80.04 74.3183 79.46 74.5425 79.46 75.0469C79.5084 76.0556 79.5567 77.1205 79.6534 78.0732C79.3868 77.9232 79.0926 77.8509 78.7965 77.8626C78.5003 77.8743 78.2111 77.9697 77.9539 78.1404C77.6967 78.3111 77.4794 78.5519 77.3207 78.8421C77.162 79.1323 77.0668 79.463 77.0433 79.8055C76.6566 82.8329 78.4933 85.1867 80.185 84.0659C80.6684 86.5318 81.4901 89.0538 83.2793 90.567C83.1818 91.5758 83.1343 92.5845 83.0376 93.5933C82.9893 94.49 83.521 94.6021 83.7143 94.1538C83.8449 93.1324 83.9256 92.1033 83.956 91.0714C85.1407 91.7871 86.4687 92.1229 87.8028 92.0441C89.1369 91.9653 90.4287 91.4747 91.5445 90.623C91.5928 91.6318 91.5445 92.6966 91.6411 93.7054C91.6421 93.7692 91.6546 93.8321 91.6778 93.8899C91.7011 93.9477 91.7346 93.9992 91.7761 94.041C91.8177 94.0828 91.8663 94.114 91.919 94.1326C91.9716 94.1511 92.027 94.1566 92.0816 94.1487C92.1362 94.1408 92.1888 94.1197 92.2359 94.0866C92.2829 94.0536 92.3235 94.0095 92.3549 93.9571C92.3863 93.9047 92.4078 93.8453 92.4181 93.7826C92.4284 93.7199 92.4271 93.6554 92.4145 93.5933C92.2695 91.912 92.3661 90.8472 92.3178 90.0065C93.7813 88.661 94.8462 86.8193 95.3638 84.7384C95.6565 84.8192 95.9613 84.8208 96.2547 84.743C96.5481 84.6653 96.8221 84.5103 97.0554 84.29C99.3263 82.5068 99.1321 77.7421 96.2812 78.7509Z" fill="#191919"/>
<path d="M84.2454 73.8189C83.7564 73.8079 83.2709 73.9171 82.8209 74.1393C82.3709 74.3614 81.9666 74.6915 81.6345 75.1079C81.3445 75.4441 81.5378 76.1727 82.1178 75.8365C82.7425 75.3165 83.4786 75.0063 84.2454 74.9397C85.1154 74.8277 84.9739 73.879 84.2454 73.8189Z" fill="#191919"/>
<path d="M95.9906 108.961C95.855 107.599 95.413 106.302 94.7089 105.2C94.0048 104.098 93.0633 103.231 91.9788 102.684C91.4515 102.46 91.3988 103.076 91.7855 103.295C94.2505 104.808 95.2172 107.723 95.3148 110.806C95.4106 113.328 94.3955 117.251 96.9573 118.652C97.3967 118.876 97.7315 118.041 97.2956 117.812C95.1206 116.64 96.502 112.776 95.9906 108.961Z" fill="#191919"/>
<path d="M84.8733 103.637C85.1097 103.295 84.8249 102.852 84.4866 103.127C82.6086 104.991 81.2328 107.443 80.5232 110.189C80.1849 111.647 80.2815 113.16 79.9915 114.561C79.6532 116.186 78.4448 116.803 77.3331 117.699C76.9465 117.98 77.2848 118.764 77.7198 118.54C78.8035 118.027 79.7295 117.148 80.3782 116.018C81.3932 114.001 80.3782 111.479 82.4566 107.274C83.1826 105.993 83.9904 104.777 84.8733 103.637Z" fill="#191919"/>
<path d="M81.9731 115.799C82.1392 114.067 82.0215 112.267 82.8431 110.698C83.2132 110.05 83.6976 109.5 84.2642 109.085C84.8309 108.669 85.467 108.398 86.1307 108.288C86.7108 108.176 86.658 107.503 86.1307 107.503C85.3644 107.533 84.6148 107.771 83.9429 108.2C83.271 108.628 82.6958 109.235 82.264 109.969C81.4301 111.729 81.108 113.754 81.3457 115.743C81.3448 116.135 81.9301 116.247 81.9731 115.799Z" fill="#191919"/>
<path d="M87.8736 115.298C87.6978 116.758 87.9702 138.445 88.0186 139.622C88.0186 140.238 88.8886 140.182 88.8886 139.566C88.8886 133.35 88.6469 122.135 88.5503 115.354C88.4984 115.014 87.9237 114.846 87.8736 115.298Z" fill="#191919"/>
<path d="M93.0421 125.607C92.4878 125.365 91.9942 124.967 91.606 124.448C91.2178 123.929 90.9472 123.307 90.8187 122.636C90.2871 119.666 92.9454 116.808 91.5921 113.725C91.3554 113.149 90.9628 112.678 90.4742 112.383C89.9855 112.089 89.4273 111.988 88.8845 112.095C88.814 112.095 88.7464 112.127 88.6965 112.185C88.6467 112.243 88.6187 112.321 88.6187 112.403C88.6187 112.485 88.6467 112.563 88.6965 112.621C88.7464 112.679 88.814 112.711 88.8845 112.711C89.1981 112.725 89.506 112.813 89.7896 112.968C90.0733 113.124 90.3267 113.345 90.5346 113.617C90.7426 113.89 90.9007 114.208 90.9993 114.554C91.098 114.899 91.1352 115.264 91.1087 115.627C91.1087 117.252 90.3354 118.765 90.0454 120.334C89.7504 121.568 89.8647 122.886 90.3657 124.027C90.8667 125.168 91.7181 126.05 92.7521 126.499C93.2838 126.784 93.572 125.839 93.0421 125.607Z" fill="#191919"/>
<path d="M76.9463 119.05C76.8953 118.601 76.9463 117.088 76.2696 117.317C75.6765 117.445 75.0943 117.632 74.5296 117.878C73.7562 118.27 73.3696 119.279 74.4329 118.943C74.9163 118.775 75.4479 118.606 75.9269 118.433C76.1731 122.065 77.428 125.507 79.5036 128.242C76.672 131.047 73.6109 133.525 70.364 135.64C69.4457 136.256 69.6874 137.209 70.4607 136.705C73.9738 134.579 77.2388 131.942 80.1768 128.858C80.3218 128.69 80.5151 128.466 80.3218 128.13C78.5897 124.99 77.3602 122.696 76.9463 119.05Z" fill="#191919"/>
<path d="M118.081 131.548C117.546 125.664 113.924 114.174 111.894 109.073C108.8 101.395 103.918 98.5924 97.0549 96.854C96.9651 96.8315 96.8712 96.8514 96.794 96.9092C96.7168 96.967 96.6625 97.058 96.6432 97.1622C96.6238 97.2664 96.641 97.3752 96.6908 97.4647C96.7407 97.5543 96.8192 97.6172 96.909 97.6396C102.855 100.049 107.253 100.946 110.493 108.064C112.813 113.165 117.936 128.802 117.211 134.799C116.631 139.45 114.504 139.226 111.701 139.45C106.673 139.843 98.0699 132.053 94.4923 128.242C96.909 126.279 98.4566 121.796 98.8916 118.657C102.74 119.882 106.455 121.612 109.965 123.813C110.449 124.093 110.835 123.365 110.352 123.085C108.117 121.631 105.79 120.376 103.391 119.33C103.182 117.992 102.683 116.739 101.941 115.687C101.554 115.294 101.361 115.799 101.506 116.079C101.978 116.967 102.336 117.93 102.569 118.937C101.424 118.429 100.244 118.035 99.041 117.76C98.1227 117.592 98.1227 117.76 97.9777 118.657C96.3817 127.569 92.7567 127.344 93.7717 128.634C97.3493 133.286 105.953 140.291 111.56 140.403C116.824 140.568 118.658 137.882 118.081 131.548Z" fill="#191919"/>
<path d="M93.5252 113.725C93.4651 112.906 93.2004 112.125 92.7633 111.478C92.3263 110.831 91.7359 110.345 91.0645 110.081C90.2369 109.896 89.3936 109.82 88.5512 109.857C88.1636 109.857 88.1636 110.418 88.5028 110.531C89.9045 110.979 91.0645 110.362 92.0796 112.044C93.1912 113.837 92.5629 115.575 92.7562 116.64C92.7826 116.723 92.8294 116.797 92.891 116.85C92.9525 116.904 93.0262 116.935 93.103 116.941C93.1798 116.947 93.2564 116.927 93.3236 116.884C93.3907 116.84 93.4455 116.775 93.4812 116.696C93.6443 115.716 93.6591 114.711 93.5252 113.725Z" fill="#191919"/>
<path d="M87.2908 111.764C86.7337 111.969 86.2209 112.31 85.7872 112.765C85.3535 113.219 85.0089 113.776 84.7766 114.398C82.7465 119.33 88.3059 122.973 80.2815 126.392C80.1831 126.426 80.0998 126.503 80.0489 126.607C79.9981 126.71 79.9836 126.832 80.0085 126.948C80.0334 127.063 80.0958 127.163 80.1827 127.227C80.2695 127.29 80.3742 127.313 80.4748 127.289C81.7546 126.94 82.9463 126.248 83.9549 125.27C88.4509 120.899 82.0215 116.696 87.5325 112.38C87.8225 112.1 87.6784 111.658 87.2908 111.764Z" fill="#191919"/>
<path d="M83.085 78.807C83.7072 79.4326 84.4911 77.4619 83.6659 76.9575C82.94 76.5092 82.6456 78.3647 83.085 78.807Z" fill="#191919"/>
<path d="M92.8491 109.745C94.0943 111.107 94.0091 113.108 94.0574 114.959C94.0574 115.407 94.6374 115.351 94.7341 114.959C94.9758 112.941 94.7824 110.53 93.4291 109.017C91.979 107.448 89.7557 107.223 87.919 107.56C87.8771 107.562 87.8361 107.574 87.7987 107.596C87.7613 107.618 87.7283 107.649 87.702 107.687C87.6756 107.724 87.6564 107.768 87.6458 107.815C87.6351 107.862 87.6331 107.911 87.64 107.959C87.6469 108.007 87.6625 108.053 87.6857 108.093C87.709 108.134 87.7393 108.168 87.7748 108.194C87.8103 108.22 87.8502 108.236 87.8917 108.243C87.9332 108.25 87.9754 108.246 88.0156 108.232C89.659 108.232 91.5308 108.305 92.8491 109.745Z" fill="#191919"/>
<path d="M76.3178 77.4058C76.752 77.8552 77.2362 77.0695 76.8495 76.6212C74.0461 73.3706 74.0461 68.4377 75.9795 64.6268C81.5379 53.529 98.07 55.7718 101.502 67.2048C102.097 69.0325 102.159 71.0359 101.679 72.9085C101.199 74.7811 100.203 76.4198 98.8433 77.5739C98.5533 77.8541 98.795 78.4706 99.1817 78.2465C103.048 76.0047 103.725 70.1201 102.13 65.9168C97.3933 53.418 78.9762 52.7454 74.4811 65.9168C73.1278 69.7838 73.5584 74.5527 76.3178 77.4058Z" fill="#191919"/>
<path d="M77.8162 74.0432C80.7611 74.4243 84.3906 72.0256 85.8406 69.1113C85.8847 69.0293 85.9003 68.931 85.8844 68.8362C85.8685 68.7413 85.8221 68.657 85.7547 68.6002C85.6874 68.5434 85.6039 68.5182 85.5212 68.5299C85.4385 68.5415 85.3626 68.5891 85.3089 68.6629C83.1339 71.7454 81.1513 72.7542 77.8162 73.2025C77.7303 73.2188 77.6521 73.2701 77.5957 73.3471C77.5393 73.4241 77.5083 73.5218 77.5083 73.6228C77.5083 73.7239 77.5393 73.8216 77.5957 73.8986C77.6521 73.9756 77.7303 74.0268 77.8162 74.0432Z" fill="#191919"/>
<path d="M87.0964 82.6749C87.4356 82.3957 87.4348 82.0024 87.0964 81.8343C86.8547 81.7222 85.5497 82.1145 85.4531 81.8343C85.2597 81.2738 85.9847 78.8629 86.1297 77.686C86.2264 76.8453 85.8881 76.8453 85.5497 77.5179C85.2114 78.1904 84.1436 81.6101 84.6305 82.6189C85.1147 83.4595 86.6148 83.0693 87.0964 82.6749Z" fill="#191919"/>
<path d="M67.5203 106.158C70.4643 101.391 73.7079 99.433 78.5414 97.6957C79.0247 97.5275 78.8797 96.6308 78.3963 96.799C72.8379 98.7045 69.9853 100.498 66.6019 105.934C66.1186 106.607 67.036 106.942 67.5203 106.158Z" fill="#191919"/>
<path d="M97.5403 74.5477C97.6107 74.5232 97.6719 74.4714 97.7135 74.401C97.7551 74.3307 97.7747 74.2459 97.7691 74.1608C97.7634 74.0758 97.7329 73.9955 97.6824 73.9333C97.632 73.8712 97.5648 73.8309 97.4919 73.8191C94.4943 73.7631 90.8693 73.2587 88.5975 70.7367C86.4708 68.3828 85.4075 64.2906 85.2581 60.984C85.2098 60.4236 84.4847 60.3726 84.5331 60.928C84.5814 64.4027 85.9392 68.9433 88.1098 71.3532C90.2805 73.7631 94.584 75.0735 97.5403 74.5477Z" fill="#191919"/>
<path d="M85.7921 85.8694C87.359 86.8344 89.3205 86.2617 89.8522 84.5244C89.9489 84.1321 89.5622 83.7958 89.3205 84.1321C87.9144 86.0375 86.7105 85.2529 85.9811 85.309C85.5988 85.2529 85.5056 85.6931 85.7921 85.8694Z" fill="#191919"/>
<path d="M92.0273 76.397C91.6617 75.1743 89.6105 73.819 88.6439 74.2113C88.2572 74.3795 88.1122 75.2762 88.6439 75.3882C89.718 75.5504 90.7269 76.0768 91.5439 76.9014C91.7856 77.1256 92.1626 76.8495 92.0273 76.397Z" fill="#191919"/>
<path d="M88.9338 79.1992C89.8539 78.9873 89.8038 77.0135 89.0788 77.2377C88.4012 77.4058 88.1613 79.3775 88.9338 79.1992Z" fill="#191919"/>
<path d="M115.616 43.7775C116.1 43.6124 116.583 43.4412 117.066 43.268C116.776 44.6691 116.438 46.0702 116.148 47.4713C115.664 49.4889 116.341 49.657 116.728 48.9284C117.936 46.7427 119.193 44.501 120.498 42.3713C122.287 39.401 122.721 39.6812 119.435 39.7933C120.015 38.5032 120.595 37.2142 121.126 35.9211C121.658 34.6281 118.081 36.0893 117.743 36.4255C117.675 36.4758 117.626 36.5535 117.604 36.6435C117.583 36.7336 117.591 36.8296 117.627 36.9131C117.663 36.9967 117.724 37.0618 117.799 37.0959C117.874 37.1301 117.957 37.1308 118.033 37.0981C118.42 36.986 119.241 36.5376 120.16 36.3135L118.565 40.0134C118.468 40.2936 118.565 40.6299 118.855 40.6299C119.483 40.6299 120.16 40.5738 120.788 40.5738C119.58 42.5914 118.371 44.665 117.163 46.6826L118.178 42.6474C118.203 42.5668 118.209 42.4796 118.195 42.3953C118.181 42.311 118.147 42.2328 118.097 42.1692C118.048 42.1057 117.984 42.0592 117.913 42.0348C117.842 42.0104 117.766 42.0091 117.695 42.031C117.211 42.1991 116.679 42.4233 116.201 42.5914C116.491 40.9661 116.877 39.3408 117.216 37.6585C117.312 37.2102 116.732 37.0981 116.587 37.4904C116.025 39.3199 115.573 41.1926 115.234 43.0948C115.084 43.4412 115.279 43.8916 115.616 43.7775Z" fill="#191919"/>
<path d="M57.2243 86.1548C57.4669 86.379 57.8535 86.1548 57.7085 85.8185C57.3693 84.6977 57.0793 83.5768 57.8052 82.3999C58.1022 81.9383 58.5023 81.5794 58.9622 81.362C59.4221 81.1445 59.9245 81.0767 60.4152 81.1659C60.4946 81.1654 60.5716 81.1352 60.6349 81.0796C60.6981 81.024 60.7441 80.9461 60.7659 80.8577C60.7877 80.7692 60.7841 80.675 60.7557 80.5891C60.7274 80.5031 60.6757 80.4302 60.6086 80.3813C59.2552 79.6527 56.596 80.9977 56.596 83.9691C56.5582 84.3644 56.5948 84.7645 56.7033 85.1419C56.8118 85.5192 56.9895 85.8648 57.2243 86.1548Z" fill="#191919"/>
<path d="M55.3867 92.7631C55.3916 92.8856 55.437 93.0012 55.5136 93.0859C55.5901 93.1706 55.6918 93.2179 55.7976 93.2179C55.9034 93.2179 56.0051 93.1706 56.0816 93.0859C56.1581 93.0012 56.2035 92.8856 56.2084 92.7631C56.3128 91.7307 56.2472 90.6847 56.0151 89.6806C55.5317 87.7191 53.9367 86.9905 53.985 85.029C54.0334 83.8521 54.2267 82.6751 54.275 81.5543C54.274 81.4627 54.2435 81.3748 54.1894 81.308C54.1354 81.2412 54.0617 81.2002 53.983 81.1932C53.9042 81.1862 53.826 81.2136 53.7638 81.27C53.7015 81.3265 53.6598 81.4079 53.6467 81.4982C53.4534 82.6191 53.26 83.74 53.1634 84.8609C52.97 87.3268 54.4201 87.9993 55.0001 89.5686C55.3903 90.5684 55.5246 91.6773 55.3867 92.7631Z" fill="#191919"/>
<path d="M55.9189 71.8576L56.6439 80.096C56.6922 80.4323 57.2239 80.4323 57.2722 80.04C57.5139 77.9664 56.8856 73.8752 56.4989 71.6843C56.4505 71.3532 55.8705 71.4653 55.9189 71.8576Z" fill="#191919"/>
<path d="M60.8011 86.9904C60.9892 87.4418 61.4778 87.1025 61.3811 86.7102C61.2361 85.7574 60.8978 84.6366 62.4928 84.6366C63.7978 84.6366 63.9868 85.9816 63.9428 87.2146C63.8462 89.5124 62.1545 91.4739 62.1545 93.5476C62.1562 93.6647 62.1945 93.7771 62.2623 93.864C62.3301 93.9508 62.4227 94.0063 62.5231 94.02C62.6234 94.0336 62.7246 94.0047 62.8079 93.9384C62.8912 93.8722 62.951 93.7731 62.9761 93.6596C63.4595 91.3618 63.6528 91.586 64.3295 89.6805C64.9141 88.2608 65.0008 86.6333 64.5712 85.141C63.6045 82.619 59.2632 83.3129 60.8011 86.9904Z" fill="#191919"/>
<path d="M58.6269 84.076C58.5336 84.9064 58.6689 85.7499 59.0135 86.4859C59.0528 86.5521 59.111 86.6001 59.1778 86.6214C59.2446 86.6428 59.3158 86.6362 59.3788 86.6027C59.4418 86.5692 59.4926 86.5111 59.5222 86.4384C59.5518 86.3658 59.5584 86.2834 59.5408 86.2056C59.3475 85.0287 59.1542 83.6276 60.1208 83.0111C60.5463 82.7094 61.0302 82.5359 61.5283 82.5065C62.0264 82.4772 62.5229 82.5928 62.9726 82.843C63.3109 83.0672 63.6009 82.4507 63.3592 82.1705C62.5419 80.9935 58.9169 81.4419 58.6269 84.076Z" fill="#191919"/>
<path d="M36.7771 74.6596C36.4871 74.7157 36.1971 74.7717 35.9554 74.8278C35.5204 73.2585 34.2154 71.6333 32.6204 72.3058C30.9287 73.0344 30.8795 75.164 30.977 76.1168C29.5709 76.2849 28.1244 76.5091 26.7227 76.6772C26.6433 76.699 26.5731 76.7528 26.5248 76.829C26.4764 76.9053 26.4531 76.999 26.4589 77.0934C26.4647 77.1878 26.4993 77.2767 26.5565 77.3442C26.6137 77.4117 26.6898 77.4534 26.771 77.4618C28.2211 77.3498 29.6711 77.2377 31.122 77.1816C31.9727 82.2246 36.8861 80.8561 36.1971 75.8366C36.4388 75.7805 36.6804 75.7805 36.8738 75.7245C37.4107 80.0857 41.7837 80.2202 41.3689 75.0519C41.7555 75.0519 42.5772 74.8278 42.1905 74.1552C41.9972 73.819 41.5622 74.0432 41.2722 74.0992C40.4988 70.4003 36.9221 70.8487 36.7771 74.6596ZM31.7504 76.5651C31.6053 75.2761 31.847 73.9311 32.572 73.4267C33.7804 72.53 34.9887 73.9311 35.3754 75.7245C36.1751 80.0154 32.2196 80.9243 31.7504 76.5651ZM39.6288 78.0223C37.8536 78.7356 36.6611 74.0595 38.2271 72.6981C40.3073 70.8099 41.6694 77.1979 39.6271 78.0223H39.6288Z" fill="#191919"/>
<path d="M36.874 80.9937C35.7623 81.1058 35.859 81.6662 36.584 81.7783C37.0674 81.8344 37.8407 81.7223 38.078 81.2179C38.4647 80.4333 37.933 79.1432 37.2563 78.4147C36.773 77.8542 36.5313 78.3586 36.729 78.6388C37.1667 79.4235 38.2274 80.7135 36.874 80.9937Z" fill="#191919"/>
<path d="M40.4028 79.4794C40.3571 78.919 39.8755 78.919 39.8755 79.4794C39.9722 83.2914 39.6338 89.4002 34.9454 89.8486C33.1078 90.0167 31.1261 89.0079 29.5311 87.9431C29.2411 87.7189 28.8544 88.2793 29.1928 88.5596C30.7898 89.8926 32.6892 90.6526 34.6554 90.7453C34.7521 91.642 34.9454 92.5947 35.0421 93.4914C35.2838 95.2288 35.8638 94.3881 35.7671 93.8277C35.6653 92.7773 35.5364 91.7307 35.3804 90.6892C39.9194 89.8486 40.7605 83.8498 40.4028 79.4794Z" fill="#191919"/>
<path d="M33.7806 86.0376C34.0481 86.1857 34.3396 86.2667 34.6359 86.2754C34.9323 86.2841 35.2269 86.2203 35.5005 86.0881C35.7742 85.9559 36.0207 85.7583 36.2241 85.5081C36.4274 85.258 36.583 84.961 36.6807 84.6365C37.019 83.7958 36.8257 83.6277 36.1973 83.6277C35.5863 83.6809 34.9728 83.5723 34.4032 83.3101C33.8337 83.048 33.323 82.6391 32.9097 82.1145C32.1135 81.3441 31.9184 85.2153 33.7806 86.0376ZM36.1007 84.4683C35.3273 86.2006 33.0064 85.365 32.9589 83.3475C33.8757 84.1013 34.977 84.4942 36.1007 84.4683Z" fill="#191919"/>
<path d="M33.636 76.397C33.5349 76.7323 33.6834 77.63 34.1676 77.5179C34.5543 77.4619 34.5543 76.8454 34.4093 76.4531C34.216 75.8926 33.8214 75.7775 33.636 76.397Z" fill="#191919"/>
<path d="M39.0009 75.3883C38.8972 75.7786 39.0493 76.7894 39.5282 76.5652C39.7699 76.4531 39.8666 76.1729 39.8182 75.6685C39.726 75.048 39.182 74.7117 39.0009 75.3883Z" fill="#191919"/>
<path d="M30.5894 73.0906C31.3219 72.1123 32.3354 71.4752 33.442 71.2971C33.5568 71.2701 33.6593 71.1962 33.7311 71.089C33.8029 70.9817 33.8392 70.8482 33.8333 70.7126C33.8275 70.577 33.7799 70.4484 33.6993 70.3499C33.6186 70.2515 33.5102 70.1899 33.3937 70.1763C32.8344 70.1818 32.2825 70.3244 31.7742 70.5949C31.2659 70.8653 30.8127 71.2575 30.4444 71.7455C29.3811 73.0906 30.2915 73.4737 30.5894 73.0906Z" fill="#191919"/>
<path d="M17.7323 72.3619C17.6529 74.1011 18.0016 75.8307 18.7378 77.3489C19.4739 78.8671 20.5671 80.1114 21.8899 80.9366C22.1315 82.5619 23.0499 84.4684 24.7899 84.4684C25.3097 87.4638 25.6489 90.4975 25.8049 93.5475C25.8016 93.6014 25.8079 93.6555 25.8233 93.7065C25.8388 93.7575 25.8632 93.8042 25.8949 93.8437C25.9267 93.8833 25.9651 93.9149 26.0079 93.9364C26.0506 93.958 26.0967 93.9691 26.1433 93.9691C26.1899 93.9691 26.236 93.958 26.2787 93.9364C26.3214 93.9149 26.3599 93.8833 26.3916 93.8437C26.4234 93.8042 26.4477 93.7575 26.4632 93.7065C26.4787 93.6555 26.485 93.6014 26.4816 93.5475C26.4316 90.6293 26.1566 87.7221 25.6599 84.8607C25.5633 84.3563 25.5633 83.3465 25.0799 83.4025C24.1133 83.5146 23.1466 82.5619 22.8566 80.7685C22.5182 78.863 23.4366 77.2937 24.7416 78.0172C24.9349 78.1293 25.0799 77.9612 25.1766 77.8491C27.0616 75.7194 29.43 71.7963 29.43 67.4799C31.9434 68.77 37.986 69.2744 40.7411 68.2085C40.5478 63.9492 37.0194 57.392 29.1883 58.2887C20.4398 59.3026 17.8184 67.0367 17.7323 72.3619Z" fill="#191919"/>
<path d="M37.8413 70.6245C38.4558 70.4074 39.112 70.4074 39.7264 70.6245C40.2097 70.7926 40.1614 70.2322 39.7747 69.8399C39.4432 69.6367 39.0801 69.5123 38.7067 69.4738C38.3332 69.4353 37.9569 69.4835 37.5997 69.6157C36.8747 70.008 37.1234 70.9801 37.8413 70.6245Z" fill="#191919"/>
<path d="M19.376 62.9456C19.9214 61.5542 20.8833 60.4391 22.0836 59.8072C21.0686 51.0633 10.5308 50.0545 7.28803 58.7444C4.04524 67.4342 10.5756 71.5835 11.929 74.774C13.234 77.9685 14.0074 82.9014 13.1373 84.8619C12.2673 86.7674 13.3307 86.8795 14.539 84.2505C15.5057 82.1208 17.2458 75.8948 15.8441 70.7429C14.3492 65.4116 18.071 62.5533 19.376 62.9456Z" fill="#191919"/>
<path d="M69.2112 107.503C63.0728 107.395 52.9217 107.111 47.3633 107.672C43.0123 108.12 41.949 109.689 40.934 114.062C39.4839 120.451 37.1639 131.156 36.3905 137.265C30.5497 137.165 24.7085 137.426 18.8918 138.049C16.7168 138.386 16.5718 140.235 17.2484 141.02C17.5868 141.412 18.0218 140.852 17.7757 140.459C17.7278 140.36 17.6973 140.251 17.686 140.138C17.6747 140.025 17.6827 139.91 17.7097 139.801C17.7366 139.692 17.7819 139.589 17.843 139.5C17.9042 139.411 17.9798 139.337 18.0657 139.282C19.2741 138.33 33.9211 138.161 35.9995 138.161C36.7728 138.161 37.0145 138.049 37.2078 137.097C38.6579 129.194 40.5473 120.114 42.2829 112.66C42.8102 110.25 44.4096 108.961 46.9722 108.736C53.449 108.12 62.585 108.456 69.4485 108.568C71.8661 108.624 73.3152 109.745 73.1228 112.885C72.8811 117.088 69.6902 129.979 68.5302 134.743C68.1625 136.611 67.5941 138.419 66.8385 140.123C66.5485 140.683 67.2735 141.301 67.5635 140.734C68.4318 138.629 69.1277 136.434 69.6418 134.177C71.1885 127.9 73.3645 118.82 74.0411 113.272C74.3399 109.465 72.4988 107.561 69.2112 107.503Z" fill="#191919"/>
<path d="M56.0151 120.955C55.8191 121.289 56.1601 121.796 56.4984 121.515C56.8382 121.194 57.2608 121.015 57.6989 121.004C58.1371 120.994 58.5655 121.154 58.916 121.459C59.5444 122.132 59.6894 123.533 58.5294 125.943C57.0785 129.026 55.0968 129.475 54.2232 128.242C53.1599 126.729 54.1749 123.645 55.1899 122.412C55.4316 122.076 54.9966 121.572 54.7505 121.852C52.6238 124.094 52.2371 127.401 53.4455 128.914C55.3789 131.38 58.1831 129.363 59.2456 126.729C59.8739 125.158 60.8406 123.029 59.9706 121.403C59.7908 120.994 59.525 120.644 59.1979 120.386C58.8708 120.127 58.4928 119.968 58.0987 119.924C57.7047 119.879 57.3073 119.95 56.9431 120.13C56.579 120.311 56.2598 120.594 56.0151 120.955Z" fill="#191919"/>
<path d="M61.8168 52.0729C62.9337 51.2415 61.4784 49.0455 60.3228 50.3906C59.3517 51.4565 60.9028 52.7526 61.8168 52.0729Z" fill="#191919"/>
<path d="M50.0226 53.0246C51.2828 53.5739 52.2459 51.9598 51.4726 51.1191C50.4092 49.9422 48.5769 52.3949 50.0226 53.0246Z" fill="#191919"/>
<path d="M55.3867 52.6895C57.0793 53.3009 57.7067 50.784 56.0634 50.3356C55 50.0554 53.9859 52.182 55.3867 52.6895Z" fill="#191919"/>
<path d="M119.579 62.6653C119.343 62.1018 118.758 62.273 118.806 62.7774C119 64.5097 121.996 64.795 122.867 62.8895C124.413 59.4148 119.527 58.406 118.904 60.6478C118.662 61.4884 119.289 61.4324 119.629 60.8159C120.063 59.9752 122.914 60.3064 122.142 62.3291C121.804 63.3379 119.976 63.613 119.579 62.6653Z" fill="#F04E27"/>
<path d="M111.315 50.9522C111.266 54.0346 114.07 55.1555 116.196 55.6599C123.979 57.5094 127.508 52.6896 126.541 49.3259C126.536 49.2807 126.522 49.2373 126.501 49.1986C126.48 49.1599 126.453 49.1268 126.42 49.1016C126.387 49.0764 126.35 49.0597 126.311 49.0525C126.272 49.0453 126.232 49.0478 126.194 49.0599C126.156 49.072 126.121 49.0934 126.091 49.1227C126.06 49.1519 126.036 49.1883 126.019 49.2294C126.002 49.2705 125.992 49.3154 125.992 49.3611C125.991 49.4067 125.998 49.4521 126.014 49.4941C126.304 53.5863 122.194 55.0985 119.343 55.1555C117.119 55.2116 110.981 53.8665 112.286 49.9424C112.527 49.2699 112.092 48.8776 111.759 49.2699C109.777 51.6808 106.779 51.0083 105.329 48.093C103.782 44.9545 104.604 40.527 107.988 41.0314C108.09 41.0383 108.192 41.0012 108.272 40.9271C108.353 40.8531 108.408 40.7473 108.425 40.6298C108.443 40.5123 108.423 40.3913 108.369 40.2897C108.315 40.1881 108.231 40.113 108.133 40.0787C105.281 38.7336 104.793 33.5766 108.229 31.1667C111.517 28.8689 114.272 30.1579 116.495 33.1843C116.882 33.7447 117.365 33.6326 117.414 32.5117C117.655 29.5974 120.845 27.9161 123.118 28.5886C123.721 28.8153 124.279 29.1787 124.759 29.6579C125.24 30.1371 125.633 30.7224 125.917 31.3796C126.2 32.0369 126.368 32.753 126.41 33.4862C126.452 34.2194 126.368 34.955 126.163 35.6502C126.018 36.1597 126.453 36.3237 126.791 36.2116C129.788 35.3139 132.978 39.1259 133.268 42.4325C133.751 47.8127 129.595 47.9809 127.081 47.3644C126.598 47.2523 126.695 47.8739 127.081 48.0369C130.706 49.438 134.476 47.4765 134.041 42.4325C133.751 38.7336 130.416 34.6974 127.033 35.3139C127.268 34.0882 127.198 32.8101 126.83 31.6291C126.462 30.448 125.811 29.4129 124.955 28.6447C121.86 26.0106 117.269 28.3084 116.64 31.9513C115.663 30.5446 114.291 29.5786 112.764 29.2204C111.237 28.8621 109.65 29.1343 108.278 29.9897C104.991 31.9513 103.444 37.0523 106.538 39.9666C104.266 40.5831 103.251 43.2171 103.541 45.9073C104.257 50.7281 108.462 53.25 111.315 50.9522Z" fill="#F04E27"/>
<path d="M51.7136 106.331C54.1303 106.331 58.868 106.331 62.1064 106.275C62.8143 102.447 63.3133 98.5724 63.6003 94.6725C61.0386 95.0648 56.2043 94.7845 54.0776 93.8318C53.5767 98.0642 52.7863 102.244 51.7136 106.331Z" fill="#F04E27"/>
<path d="M15.8994 140.568C15.7614 139.876 15.8297 139.151 16.093 138.51C16.3563 137.868 16.7992 137.35 17.3494 137.038C18.6544 136.309 32.0447 136.197 35.1891 136.029C35.3341 135.132 35.7691 132.722 36.3975 129.584C28.4849 127.742 20.4431 126.748 12.3736 126.613C11.6486 126.613 11.9386 125.828 12.3736 125.828C13.5336 125.772 14.6936 125.772 15.8537 125.772C16.7476 121.673 18.0793 117.719 19.8179 114.003C20.0113 113.61 20.4463 113.834 20.3013 114.227C18.8036 117.958 17.606 121.841 16.7237 125.828C23.4099 126.124 30.0673 127.005 36.6391 128.463C37.7025 123.138 39.1525 116.3 40.5059 111.705C41.6659 107.612 43.5026 106.604 45.9685 106.436C47.5787 106.355 49.1907 106.336 50.8019 106.38C50.9953 105.707 51.1886 105.034 51.382 104.194C49.0136 99.7103 43.9376 95.7301 37.0258 95.1137C34.6574 98.3652 28.0348 98.029 24.4097 94.0488C22.283 94.329 15.2701 96.1225 11.0686 101.616C5.17092 109.462 -2.85256 127.454 1.01418 136.926C2.94052 141.749 13.7199 140.852 15.8994 140.568Z" fill="#F04E27"/>
<path d="M82.5046 9.30844C82.6531 7.90734 81.8279 0.788735 81.1996 0.116208C81.1626 0.0712447 81.1166 0.0376379 81.0656 0.0184099C81.0147 -0.000818057 80.9604 -0.00506488 80.9077 0.00604893C80.855 0.0171627 80.8055 0.0432899 80.7636 0.0820827C80.7218 0.120875 80.6889 0.171117 80.6679 0.228294C80.4746 0.73269 81.6346 8.41072 81.7796 9.30844C81.7983 9.40374 81.8443 9.48886 81.9102 9.54984C81.976 9.61082 82.0578 9.64403 82.1421 9.64403C82.2264 9.64403 82.3082 9.61082 82.374 9.54984C82.4399 9.48886 82.4859 9.40374 82.5046 9.30844Z" fill="#F04E27"/>
<path d="M89.3206 37.8917C89.3563 37.807 89.3726 37.7131 89.3677 37.619C89.3628 37.525 89.3369 37.434 89.2927 37.3549C89.2484 37.2759 89.1872 37.2115 89.1151 37.1681C89.043 37.1246 88.9624 37.1036 88.8812 37.1071C88.0595 37.1071 86.9478 38.9575 82.8869 38.284C82.4474 38.2279 82.1618 38.9575 82.5969 39.1817C85.1638 40.3005 88.9286 38.9555 89.3206 37.8917Z" fill="#F04E27"/>
<path d="M94.2504 28.0283C95.9928 29.2017 97.8207 30.1956 99.713 30.9986C99.7962 31.0135 99.8813 30.9974 99.9561 30.9527C100.031 30.9079 100.091 30.8367 100.129 30.7494C100.167 30.6621 100.179 30.5632 100.166 30.467C100.152 30.3708 100.112 30.2822 100.051 30.214C98.316 29.0402 96.4865 28.0642 94.5887 27.2997C94.5054 27.2477 94.4077 27.2362 94.317 27.2677C94.2264 27.2992 94.1503 27.3712 94.1054 27.4678C94.0605 27.5644 94.0506 27.6778 94.0778 27.7829C94.105 27.888 94.1671 27.9762 94.2504 28.0283Z" fill="#F04E27"/>
<path d="M85.0191 40.4149C84.92 40.3904 84.8166 40.4097 84.7291 40.4691C84.6416 40.5284 84.5763 40.6234 84.5461 40.7356C84.5159 40.8478 84.5228 40.969 84.5656 41.0755C84.6084 41.182 84.6839 41.2662 84.7774 41.3116C85.9858 42.0962 88.1169 41.1995 87.2908 40.3588C86.9077 39.9665 86.3224 40.7083 85.0191 40.4149Z" fill="#F04E27"/>
<path d="M93.1877 14.8567C93.9092 14.5103 97.7803 9.25234 98.4087 8.24355C98.6503 7.85124 98.1186 7.45893 97.8286 7.73915C96.2277 9.53039 94.7107 11.4199 93.2843 13.3996C92.366 14.5765 92.8476 15.0198 93.1877 14.8567Z" fill="#F04E27"/>
<path d="M81.006 32.5677C81.0452 32.6679 81.1134 32.749 81.1988 32.7968C81.2842 32.8447 81.3813 32.8563 81.4734 32.8296C81.5654 32.803 81.6464 32.7397 81.7024 32.6509C81.7583 32.562 81.7855 32.4532 81.7794 32.3435C81.4411 29.8775 79.5077 28.4714 78.4399 26.4589C76.2166 22.2545 79.1649 17.4348 82.935 16.3139C86.0293 15.3611 89.5093 16.6501 90.331 20.9655C91.056 24.6655 89.606 27.3556 88.591 30.7182C88.3977 31.4468 89.0304 31.6709 89.316 30.9984C90.621 28.1453 91.8777 24.7215 91.491 21.4699C90.8144 16.2578 87.0443 13.96 82.8383 15.137C79.1649 16.2018 76.0232 19.9007 76.6516 24.5534C77.1876 28.3644 80.0684 29.417 81.006 32.5677Z" fill="#F04E27"/>
<path d="M82.0744 36.8269C83.1866 37.2856 84.3746 37.4432 85.5474 37.2878C86.7203 37.1324 87.8469 36.668 88.8412 35.9302C89.2762 35.5379 89.0829 34.6973 88.4545 34.9775C85.8928 36.0423 84.8778 36.3225 82.3635 35.9302C81.925 35.8742 81.635 36.6079 82.0744 36.8269Z" fill="#F04E27"/>
<path d="M68.7761 32.7358C68.4395 33.2453 68.7761 33.9127 69.7428 33.1281C71.0855 32.1591 72.3623 31.0724 73.562 29.8776C73.6263 29.8125 73.6679 29.7225 73.6792 29.6244C73.6904 29.5264 73.6705 29.4269 73.6232 29.3446C73.5759 29.2623 73.5043 29.2027 73.4219 29.1771C73.3395 29.1514 73.2519 29.1613 73.1754 29.205C71.6219 30.2291 70.1498 31.4107 68.7761 32.7358Z" fill="#F04E27"/>
<path d="M72.4072 17.771C72.487 17.7951 72.5716 17.7859 72.6462 17.7451C72.7207 17.7042 72.7805 17.6342 72.8151 17.5474C72.8497 17.4605 72.8568 17.3624 72.8352 17.27C72.8137 17.1777 72.7648 17.0971 72.6972 17.0424C70.7639 15.5888 68.7446 14.2949 66.6545 13.1703C66.5676 13.1387 66.4739 13.144 66.3901 13.1853C66.3063 13.2265 66.2379 13.3011 66.1972 13.3955C66.1565 13.4899 66.1461 13.5981 66.1679 13.7006C66.1897 13.8031 66.2423 13.8932 66.3162 13.9549C68.2661 15.3923 70.3016 16.6675 72.4072 17.771Z" fill="#F04E27"/>
<path d="M82.0741 34.6965C83.6788 35.2803 87.73 34.3602 88.6001 33.5756C89.1801 33.0151 88.6484 32.2305 87.9234 32.5668C86.1194 33.361 84.1954 33.7232 82.2674 33.6316C81.393 33.5756 81.2524 34.401 82.0741 34.6965Z" fill="#F04E27"/>
<path d="M85.9851 31.4468C85.9232 28.4932 86.1502 25.5411 86.6618 22.6468C86.6739 22.5535 86.6552 22.4582 86.6094 22.3801C86.5636 22.3021 86.4941 22.2469 86.4147 22.2257C86.3354 22.2044 86.252 22.2187 86.1814 22.2656C86.1107 22.3125 86.0579 22.3886 86.0335 22.4787C85.3976 25.4069 85.1691 28.434 85.3568 31.4457C85.3545 31.4952 85.3609 31.5447 85.3756 31.5912C85.3903 31.6377 85.413 31.6802 85.4424 31.7162C85.4717 31.7522 85.5071 31.7808 85.5463 31.8005C85.5855 31.8201 85.6278 31.8302 85.6705 31.8303C85.7132 31.8304 85.7555 31.8204 85.7948 31.8009C85.834 31.7814 85.8695 31.7528 85.8989 31.7169C85.9283 31.681 85.9512 31.6386 85.966 31.5921C85.9808 31.5457 85.9873 31.4962 85.9851 31.4468Z" fill="#F04E27"/>
<path d="M84.825 22.1435C83.5473 22.539 82.2314 22.7445 80.909 22.7549C80.8361 22.7555 80.7646 22.7788 80.7021 22.8225C80.6396 22.8661 80.5884 22.9285 80.5538 23.003C80.5192 23.0775 80.5025 23.1614 80.5055 23.2459C80.5084 23.3304 80.531 23.4125 80.5707 23.4834C81.5616 26.0808 82.4331 28.7373 83.1816 31.4417C83.3266 31.9512 83.7616 31.834 83.6649 31.3296C83.2132 28.6838 82.4992 26.1073 81.5374 23.6516C82.74 23.5857 83.9283 23.3215 85.0666 22.8669C85.1402 22.8226 85.1971 22.7484 85.2263 22.6585C85.2556 22.5686 85.2552 22.4693 85.2253 22.3797C85.1954 22.2901 85.138 22.2164 85.0641 22.1728C84.9902 22.1292 84.9051 22.1188 84.825 22.1435Z" fill="#F04E27"/>
<path d="M49.7809 61.2083C49.9003 63.8893 49.5364 66.5697 48.7125 69.0786C47.8886 71.5875 46.6228 73.8697 44.9958 75.7797C44.0774 76.8445 44.8508 77.0687 45.7691 76.6764C50.1192 74.7149 54.0299 68.9423 55.146 63.7853C55.3393 62.8886 54.6626 62.9446 54.566 63.505C53.9726 66.0404 52.9374 68.4079 51.5241 70.4612C50.1109 72.5145 48.3496 74.2102 46.3491 75.4434C49.3082 71.5821 50.8529 66.5357 50.6553 61.3754C50.6069 60.5347 50.5103 60.4787 49.6403 60.3105C42.1959 58.9655 39.4409 46.5787 51.187 41.5908C61.6764 37.1623 69.7491 45.4018 67.9115 53.6973C66.5581 59.9182 60.8547 60.871 56.1654 60.871C55.537 60.871 55.5854 61.7677 56.2137 61.7677C61.0471 61.8798 66.5581 61.0952 68.3465 55.4908C72.2132 43.5524 61.3864 37.0472 52.2503 40.0216C37.4548 44.9545 41.1765 60.816 49.7809 61.2083Z" fill="#F04E27"/>
</svg>
