<svg width="60" height="60" viewBox="0 0 60 60" fill="none" xmlns="http://www.w3.org/2000/svg">
<rect width="60" height="60" rx="10" fill="#FDF6B2"/>
<path d="M36.4 20.4C36.4 17.3824 36.4 15.8752 35.4624 14.9376C34.5248 14 33.0176 14 30 14C26.9824 14 25.4752 14 24.5376 14.9376C23.6 15.8752 23.6 17.3824 23.6 20.4M14 33.2C14 27.1664 14 24.1488 15.8752 22.2752C17.7504 20.4016 20.7664 20.4 26.8 20.4H33.2C39.2336 20.4 42.2512 20.4 44.1248 22.2752C45.9984 24.1504 46 27.1664 46 33.2C46 39.2336 46 42.2512 44.1248 44.1248C42.2496 45.9984 39.2336 46 33.2 46H26.8C20.7664 46 17.7488 46 15.8752 44.1248C14.0016 42.2496 14 39.2336 14 33.2Z" stroke="#723B13" stroke-width="2.5"/>
<path d="M38 25.2001C38 25.6244 37.8314 26.0314 37.5314 26.3315C37.2313 26.6315 36.8243 26.8001 36.4 26.8001C35.9757 26.8001 35.5687 26.6315 35.2686 26.3315C34.9686 26.0314 34.8 25.6244 34.8 25.2001C34.8 24.7758 34.9686 24.3688 35.2686 24.0687C35.5687 23.7687 35.9757 23.6001 36.4 23.6001C36.8243 23.6001 37.2313 23.7687 37.5314 24.0687C37.8314 24.3688 38 24.7758 38 25.2001ZM25.2 25.2001C25.2 25.6244 25.0314 26.0314 24.7314 26.3315C24.4313 26.6315 24.0243 26.8001 23.6 26.8001C23.1757 26.8001 22.7687 26.6315 22.4686 26.3315C22.1686 26.0314 22 25.6244 22 25.2001C22 24.7758 22.1686 24.3688 22.4686 24.0687C22.7687 23.7687 23.1757 23.6001 23.6 23.6001C24.0243 23.6001 24.4313 23.7687 24.7314 24.0687C25.0314 24.3688 25.2 24.7758 25.2 25.2001Z" fill="#723B13"/>
</svg>
