<svg width="60" height="60" viewBox="0 0 60 60" fill="none" xmlns="http://www.w3.org/2000/svg">
<rect width="60" height="60" rx="5" fill="#FFD3C8"/>
<path d="M30 45C27.371 43.1341 24.3276 41.9451 21.1362 41.5449C18.8728 41.0812 16.5668 40.8622 14.2573 40.8915C13.9618 40.8941 13.6687 40.8376 13.3949 40.7254C13.1212 40.6132 12.8722 40.4474 12.6623 40.2376C12.4524 40.0278 12.2859 39.7782 12.1722 39.5032C12.0585 39.2282 12 38.9331 12 38.6352L12.0409 17.2628C12.0396 16.6893 12.255 16.1369 12.6432 15.7178C13.0314 15.2987 13.5633 15.0443 14.1308 15.0064C16.4818 14.9593 18.8308 15.1712 21.1362 15.6382C24.3241 16.0529 27.3652 17.239 30 19.0953M30 45V19.0953M30 45C32.629 43.1341 35.6724 41.9451 38.8638 41.5449C41.1272 41.0812 43.4332 40.8622 45.7427 40.8915C46.0382 40.8941 46.3313 40.8376 46.6051 40.7254C46.8788 40.6132 47.1278 40.4474 47.3377 40.2376C47.5476 40.0278 47.7141 39.7782 47.8278 39.5032C47.9415 39.2282 48 38.9331 48 38.6352L47.9572 17.2628C47.9585 16.6896 47.7434 16.1375 47.3556 15.7184C46.9678 15.2994 46.4364 15.0448 45.8692 15.0064C43.5182 14.9593 41.1692 15.1712 38.8638 15.6382C35.6759 16.0529 32.6348 17.239 30 19.0953" stroke="#E83A11" stroke-width="2.5" stroke-linecap="round" stroke-linejoin="round"/>
</svg>
