<svg width="23" height="23" viewBox="0 0 23 23" fill="none" xmlns="http://www.w3.org/2000/svg">
<path d="M12.2315 3.76367H2.82227" stroke="#555E67" stroke-width="1.5" stroke-linecap="round" stroke-linejoin="round"/>
<path d="M10.3497 17.8779H2.82227" stroke="#555E67" stroke-width="1.5" stroke-linecap="round" stroke-linejoin="round"/>
<path d="M19.7598 17.8779H15.9961" stroke="#555E67" stroke-width="1.5" stroke-linecap="round" stroke-linejoin="round"/>
<path d="M19.7588 10.8203H10.3496" stroke="#555E67" stroke-width="1.5" stroke-linecap="round" stroke-linejoin="round"/>
<path d="M19.7588 3.76367H17.877" stroke="#555E67" stroke-width="1.5" stroke-linecap="round" stroke-linejoin="round"/>
<path d="M4.70411 10.8203H2.82227" stroke="#555E67" stroke-width="1.5" stroke-linecap="round" stroke-linejoin="round"/>
<path d="M13.6438 1.88184C14.0822 1.88184 14.3014 1.88184 14.4744 1.95346C14.7049 2.04895 14.8881 2.23213 14.9836 2.46269C15.0552 2.6356 15.0552 2.85481 15.0552 3.29322V4.23414C15.0552 4.67256 15.0552 4.89176 14.9836 5.06468C14.8881 5.29523 14.7049 5.47841 14.4744 5.57391C14.3014 5.64553 14.0822 5.64553 13.6438 5.64553C13.2054 5.64553 12.9862 5.64553 12.8133 5.57391C12.5827 5.47841 12.3995 5.29523 12.304 5.06468C12.2324 4.89176 12.2324 4.67256 12.2324 4.23414V3.29322C12.2324 2.85481 12.2324 2.6356 12.304 2.46269C12.3995 2.23213 12.5827 2.04895 12.8133 1.95346C12.9862 1.88184 13.2054 1.88184 13.6438 1.88184Z" stroke="#555E67" stroke-width="1.5" stroke-linecap="round" stroke-linejoin="round"/>
<path d="M11.761 15.9961C12.1994 15.9961 12.4186 15.9961 12.5915 16.0677C12.8221 16.1632 13.0053 16.3464 13.1008 16.5769C13.1724 16.7499 13.1724 16.9691 13.1724 17.4075V18.3484C13.1724 18.7868 13.1724 19.006 13.1008 19.179C13.0053 19.4095 12.8221 19.5927 12.5915 19.6882C12.4186 19.7598 12.1994 19.7598 11.761 19.7598C11.3226 19.7598 11.1034 19.7598 10.9304 19.6882C10.6999 19.5927 10.5167 19.4095 10.4212 19.179C10.3496 19.006 10.3496 18.7868 10.3496 18.3484V17.4075C10.3496 16.9691 10.3496 16.7499 10.4212 16.5769C10.5167 16.3464 10.6999 16.1632 10.9304 16.0677C11.1034 15.9961 11.3226 15.9961 11.761 15.9961Z" stroke="#555E67" stroke-width="1.5" stroke-linecap="round" stroke-linejoin="round"/>
<path d="M8.93873 8.93848C9.37714 8.93848 9.59634 8.93848 9.76928 9.0101C9.99981 9.10559 10.183 9.28877 10.2785 9.51931C10.3501 9.69225 10.3501 9.91149 10.3501 10.3499V11.2908C10.3501 11.7292 10.3501 11.9484 10.2785 12.1213C10.183 12.3519 9.99981 12.5351 9.76928 12.6306C9.59634 12.7022 9.37714 12.7022 8.93873 12.7022C8.50031 12.7022 8.28111 12.7022 8.10819 12.6306C7.87764 12.5351 7.69446 12.3519 7.59897 12.1213C7.52734 11.9484 7.52734 11.7292 7.52734 11.2908V10.3499C7.52734 9.91149 7.52734 9.69225 7.59897 9.51931C7.69446 9.28877 7.87764 9.10559 8.10819 9.0101C8.28111 8.93848 8.50031 8.93848 8.93873 8.93848Z" stroke="#555E67" stroke-width="1.5" stroke-linecap="round" stroke-linejoin="round"/>
</svg>
