<svg width="178" height="135" viewBox="0 0 178 135" fill="none" xmlns="http://www.w3.org/2000/svg">
<path d="M23.5028 40.0135C5.77755 30.4114 14.688 21.8643 21.1888 29.9523C8.57874 13.7664 20.0992 15.5165 22.017 18.6937C13.5488 4.69836 22.4564 6.04275 23.8298 8.23771C23.415 5.89875 23.5562 3.47285 24.2383 1.21993C24.3791 0.813153 24.6342 0.473529 24.9621 0.256112C25.2901 0.038696 25.6716 -0.0437715 26.045 0.0220722C26.4183 0.0879158 26.7616 0.298215 27.0191 0.618882C27.2766 0.939549 27.4334 1.35179 27.4638 1.78879C27.6222 4.07294 27.6006 4.88762 27.7561 7.65579C34.3703 -2.1171 34.6439 8.30841 31.0951 13.7599C37.0019 10.9624 33.9825 18.8536 32.0319 21.2758C38.4475 16.3345 35.4524 26.7839 33.5187 29.7163C42.2408 23.8635 40.948 29.8729 39.4153 32.1571C37.9369 34.4412 32.4404 39.0476 31.0951 40.0135H23.5028Z" fill="#FFCA2D"/>
<path d="M74.0812 32.6519C73.0039 26.4314 67.8643 29.1713 65.6355 32.4464C65.6758 23.0313 66.0205 13.0681 64.2564 10.6861C59.4167 5.94808 50.4669 12.4329 51.8534 19.7074C39.5891 16.2126 44.6715 35.0438 45.8698 39.9134H73.1032C74.1588 37.7034 74.5053 35.1305 74.0812 32.6519Z" fill="#FFCA2D"/>
<path d="M62.3317 145.56C62.323 145.6 62.303 145.635 62.275 145.66C62.247 145.685 62.2126 145.699 62.1772 145.699H56.17C56.17 145.495 56.1251 145.45 55.6417 141.869C55.638 141.841 55.6399 141.813 55.6474 141.786C55.6549 141.759 55.6677 141.734 55.6848 141.714C57.0533 140.062 58.4991 138.499 60.0158 137.031C60.6154 136.451 59.747 135.459 59.1586 136.036C57.9338 137.219 56.7571 138.465 55.6285 139.772C55.6073 139.796 55.5808 139.813 55.552 139.82C55.5232 139.827 55.4931 139.825 55.4652 139.814C55.4373 139.803 55.4127 139.783 55.394 139.756C55.3754 139.73 55.3635 139.697 55.3597 139.663C55.2042 138.397 55.0577 137.131 54.9203 135.864C54.9171 135.829 54.9221 135.794 54.9348 135.763C54.9475 135.731 54.9674 135.704 54.9924 135.685C55.073 135.622 55.9368 134.556 59.2945 130.478C59.8322 129.825 58.9769 128.827 58.4382 129.483C57.2783 130.89 56.1195 132.298 54.9615 133.707C54.9402 133.731 54.9137 133.747 54.8849 133.754C54.8562 133.761 54.8263 133.759 54.7985 133.748C54.7708 133.737 54.7462 133.717 54.7275 133.69C54.7088 133.664 54.6968 133.632 54.6926 133.598C54.554 132.204 54.4291 130.807 54.3179 129.409C54.3151 129.373 54.3215 129.336 54.3363 129.304C54.3512 129.272 54.3737 129.246 54.4013 129.229C55.6395 127.655 56.9602 126.171 58.3557 124.786C58.9581 124.207 58.0953 123.218 57.4994 123.791C56.4078 124.837 55.3752 125.963 54.4078 127.163C54.3871 127.189 54.3601 127.208 54.3301 127.217C54.3002 127.226 54.2686 127.225 54.2393 127.214C54.2099 127.202 54.1842 127.181 54.1652 127.152C54.1462 127.124 54.1348 127.09 54.1324 127.054C54.03 125.628 53.9403 124.203 53.8635 122.779C53.8618 122.75 53.8662 122.72 53.8765 122.693C53.8868 122.665 53.9026 122.641 53.9225 122.623C54.1099 122.445 55.1976 120.713 57.7112 117.532C58.2377 116.865 57.3814 115.867 56.853 116.538C55.8824 117.767 54.9375 119.023 54.0181 120.306C53.9976 120.334 53.9701 120.355 53.9394 120.365C53.9087 120.375 53.876 120.374 53.8457 120.362C53.8154 120.351 53.7888 120.329 53.7694 120.299C53.7501 120.27 53.7388 120.234 53.737 120.197C53.6796 118.892 53.6318 117.587 53.5937 116.281C53.5684 115.377 52.3571 115.374 52.3842 116.281C52.4248 117.737 52.4795 119.194 52.5482 120.651C52.5488 120.685 52.5414 120.718 52.5267 120.748C52.5119 120.777 52.4905 120.801 52.4648 120.817C52.439 120.833 52.4099 120.841 52.3807 120.839C52.3514 120.838 52.3231 120.826 52.299 120.807L50.3231 119.236C49.6777 118.722 49.0706 119.94 49.7104 120.449L52.5922 122.743C52.7121 122.839 52.61 122.676 52.9295 127.155C52.9319 127.189 52.926 127.224 52.9124 127.254C52.8989 127.285 52.8782 127.311 52.8528 127.328C52.8274 127.346 52.7982 127.355 52.7686 127.355C52.7389 127.354 52.7099 127.344 52.685 127.326L50.1686 125.451C49.5128 124.957 48.9019 126.174 49.5568 126.666C53.2986 129.474 53.0869 129.276 53.0972 129.404C53.2221 130.935 53.361 132.463 53.5141 133.988C53.5173 134.021 53.513 134.054 53.5014 134.084C53.4899 134.114 53.4716 134.14 53.4485 134.16C53.4253 134.179 53.3982 134.19 53.3699 134.193C53.3415 134.196 53.313 134.19 53.2873 134.176C52.3086 133.604 51.4059 132.871 50.607 132.001C50.0383 131.376 49.1792 132.376 49.7507 132.995C50.8827 134.224 52.1971 135.205 53.6302 135.89C53.7792 135.963 53.6546 135.736 54.2092 140.182C54.2139 140.216 54.2101 140.252 54.1983 140.283C54.1866 140.315 54.1673 140.343 54.1427 140.362C54.1181 140.382 54.0892 140.393 54.0594 140.395C54.0295 140.396 54 140.388 53.9741 140.37C53.2809 139.92 52.6108 139.422 51.9673 138.881C51.3321 138.353 50.7279 139.573 51.3556 140.1C52.3135 140.908 53.3308 141.616 54.3956 142.217C54.5259 142.28 54.4341 142.116 54.9297 145.48C54.937 145.529 54.9273 145.58 54.9028 145.621C54.8782 145.661 54.8407 145.689 54.7985 145.698H36.9805C36.9398 145.698 36.9007 145.68 36.8711 145.648C36.8416 145.615 36.8241 145.571 36.8221 145.524C36.7322 143.664 36.6491 141.804 36.5729 139.943C36.572 139.913 36.5777 139.882 36.5895 139.855C36.6012 139.828 36.6188 139.805 36.6404 139.787C38.1233 138.432 39.4999 136.927 40.7541 135.29C41.2703 134.613 40.415 133.614 39.896 134.292C38.9207 135.57 37.8668 136.764 36.7425 137.864C36.7196 137.888 36.6914 137.904 36.661 137.91C36.6307 137.916 36.5995 137.911 36.5712 137.897C36.543 137.883 36.5187 137.86 36.5014 137.831C36.4841 137.801 36.4745 137.766 36.4736 137.731C36.3687 135.193 36.2694 132.655 36.1757 130.117C36.1745 130.091 36.1783 130.064 36.1869 130.04C36.1955 130.016 36.2086 129.994 36.2254 129.976C36.3753 129.808 36.5139 129.625 36.6441 129.48L40.3222 125.41C40.8843 124.786 40.0309 123.789 39.4659 124.416L36.1045 128.135C35.8534 121.191 35.8478 121.588 35.9481 121.5C36.2544 121.18 36.5412 120.836 36.8062 120.47L40.6098 115.997C41.1579 115.352 40.3016 114.355 39.7526 115.001L36.0811 119.328C36.0588 119.352 36.0312 119.368 36.0014 119.375C35.9715 119.381 35.9407 119.377 35.9125 119.364C35.8844 119.351 35.86 119.329 35.8422 119.3C35.8245 119.272 35.8141 119.238 35.8122 119.203C35.7691 117.771 35.6314 112.846 35.6042 111.815C35.6042 111.707 35.3419 112.075 39.3985 107.097C39.9362 106.444 39.08 105.443 38.5422 106.102L35.815 109.429C35.7938 109.457 35.7656 109.478 35.7343 109.487C35.7029 109.496 35.6699 109.494 35.6394 109.482C35.609 109.469 35.5826 109.446 35.5638 109.415C35.545 109.384 35.5346 109.348 35.534 109.31L35.4506 105.793C35.4444 105.611 35.378 105.44 35.2653 105.314C35.1526 105.188 35.0022 105.118 34.8459 105.118C34.6895 105.118 34.5391 105.188 34.4264 105.314C34.3137 105.44 34.2473 105.611 34.2411 105.793C34.2761 107.322 34.3126 108.852 34.3507 110.384C34.0837 110.048 31.1401 106.606 31.2338 106.716C31.119 106.591 30.9669 106.523 30.8097 106.526C30.6524 106.529 30.5022 106.603 30.3909 106.732C30.2796 106.861 30.2159 107.035 30.2132 107.218C30.2106 107.4 30.2691 107.577 30.3766 107.71L32.7187 110.454C33.1499 111.101 33.6866 111.643 34.2983 112.049C34.451 112.114 34.3695 111.596 34.5999 119.204C34.6013 119.239 34.594 119.274 34.5788 119.305C34.5637 119.336 34.5413 119.36 34.5144 119.377C34.4875 119.393 34.4571 119.401 34.4268 119.398C34.3965 119.395 34.3675 119.382 34.3432 119.361L31.0005 116.371C30.3916 115.827 29.5222 116.812 30.1442 117.366L34.6093 121.376C34.7077 121.466 34.6411 121.022 34.9044 128.345C34.9064 128.381 34.8992 128.417 34.8838 128.449C34.8683 128.48 34.8453 128.506 34.8176 128.522C34.7898 128.539 34.7585 128.545 34.7275 128.542C34.6965 128.538 34.6671 128.523 34.643 128.5C33.7484 127.511 32.7157 126.705 31.5889 126.116C30.8581 125.804 30.5405 127.16 31.2666 127.474C32.5838 128.047 33.9647 129.924 34.88 130.347C34.9091 130.36 34.9343 130.383 34.9526 130.412C34.9708 130.442 34.9814 130.477 34.9831 130.513C35.0768 132.873 35.2642 137.761 35.2642 137.761C35.2664 137.798 35.2589 137.835 35.2427 137.868C35.2265 137.9 35.2023 137.926 35.1733 137.942C35.1444 137.958 35.1119 137.963 35.0801 137.958C35.0484 137.952 35.0188 137.935 34.9953 137.91C34.5971 137.517 32.5042 135.349 32.6007 135.449C32.0198 134.848 31.1598 135.84 31.7444 136.444C35.2548 140.07 34.9456 139.829 35.2754 140.033C35.4028 140.11 35.3363 139.755 35.5986 145.515C35.6009 145.564 35.5866 145.612 35.5587 145.648C35.5308 145.685 35.4916 145.707 35.4497 145.71H0.159309C0.137987 145.71 0.116925 145.704 0.097344 145.695C0.077763 145.685 0.060052 145.671 0.0452378 145.653C0.0304237 145.635 0.018801 145.614 0.0110431 145.591C0.00328523 145.568 -0.000453441 145.543 4.38253e-05 145.518C0.0412654 142.696 0.895676 136.375 2.85089 135.004C4.87449 133.59 7.59137 134.249 9.48756 135.888C11.1562 137.505 12.5245 139.498 13.5095 141.747C13.5275 141.782 13.5546 141.808 13.5867 141.823C13.6189 141.838 13.6543 141.841 13.6878 141.83C13.7212 141.82 13.7509 141.797 13.7723 141.766C13.7937 141.734 13.8057 141.695 13.8065 141.655C13.7506 138.572 13.964 135.491 14.4435 132.459C15.9003 124.579 20.3073 120.628 25.4984 120.584C25.5216 120.584 25.5446 120.578 25.5656 120.567C25.5867 120.555 25.6053 120.539 25.6201 120.518C25.6349 120.497 25.6457 120.473 25.6515 120.447C25.6574 120.421 25.6582 120.393 25.6539 120.367C24.6749 114.474 24.1231 108.384 26.0755 102.922C26.5422 101.565 27.2008 100.307 28.0241 99.2014C31.8325 94.2306 39.7526 93.6357 43.0953 98.5792C46.7069 103.926 44.5146 115.228 43.4607 121.479C43.0073 124.17 42.5897 126.862 42.2081 129.557C42.2031 129.59 42.2062 129.625 42.2171 129.656C42.228 129.688 42.2461 129.715 42.2696 129.735C42.2931 129.756 42.321 129.768 42.3502 129.771C42.3793 129.774 42.4086 129.768 42.4348 129.752C43.9536 128.881 45.6727 128.598 47.3402 128.944C47.3649 128.949 47.3903 128.947 47.4144 128.939C47.4384 128.93 47.4604 128.916 47.4786 128.896C47.4968 128.875 47.5107 128.851 47.5192 128.823C47.5277 128.796 47.5306 128.767 47.5276 128.738C47.1528 125.546 46.8024 122.305 46.512 118.874C46.231 115.585 46.0286 111.961 47.7018 109.29C49.4762 106.462 53.0419 105.636 55.8599 106.868C57.2485 107.562 58.4999 108.579 59.537 109.857C60.574 111.134 61.3746 112.644 61.8895 114.294C63.0119 117.542 64.7132 134.993 62.3317 145.56Z" fill="#191919"/>
<path d="M93.6962 75.6136C93.6962 75.6136 106.543 73.9244 112.484 77.8651C112.484 77.8651 118.802 103.675 121.279 108.151C123.756 112.627 125.454 115.159 127.636 116.708L129.939 136.199H63.3909V123.884C63.3909 123.884 77.2095 128.388 82.0577 104.182C83.4564 97.2095 84.2284 90.0876 84.3614 82.9304C84.3614 82.9304 89.575 90.8118 94.3005 88.705C100.316 86.0162 93.6962 75.6136 93.6962 75.6136Z" fill="#FFCA2D"/>
<path d="M94.6656 45.1538C94.6656 45.1538 90.3026 47.8295 90.6652 53.0352C90.7639 54.5245 91.2113 55.9541 91.9589 57.1696C92.7065 58.3852 93.726 59.3405 94.9073 59.9322L86.0587 58.2463C86.0587 58.2463 81.8916 58.4519 82.6645 53.0385C83.3915 47.9731 86.0587 47.2639 86.0587 47.2639L94.6656 45.1538Z" fill="#FFCA2D"/>
<path d="M102.806 51.1676C100.345 42.8261 91.6073 47.9666 93.8127 55.005C96.2335 60.587 104.672 57.4915 102.806 51.1676ZM99.4863 52.9993C98.5944 53.0167 98.3845 50.5683 99.4863 50.4073C100.379 50.3899 100.589 52.8372 99.4863 52.9993Z" fill="#191919"/>
<path d="M75.4537 54.4622C73.8123 54.1293 75.5876 62.0075 77.8286 62.1848C65.865 75.0195 59.5478 86.9993 56.9827 97.0039L57.8427 97.291C61.2641 83.7167 71.7784 71.9848 79.633 61.7747C73.1237 57.6001 78.0506 54.9897 75.4537 54.4622Z" fill="#191919"/>
<path d="M78.9677 50.0167C76.6256 45.4821 77.05 61.0274 79.6188 58.1678C79.1645 55.5933 77.8135 52.8142 78.9677 50.0167Z" fill="#191919"/>
<path d="M82.237 47.4902C78.542 51.4853 80.0241 59.5461 81.4669 58.0092C81.9794 57.3196 81.332 56.7236 81.2439 55.8338C80.0429 50.2877 85.3286 46.9017 82.237 47.4902Z" fill="#191919"/>
<path d="M98.2145 62.37C95.6063 63.1879 97.6252 67.1634 99.6273 66.4271C101.501 65.4318 99.9009 62.184 98.2145 62.37ZM98.1911 64.6987C97.6655 63.6709 98.4722 63.1379 99.1195 64.0744C100.12 65.4601 98.7972 65.6069 98.1911 64.6987Z" fill="#191919"/>
<path d="M116.626 40.9238C112.525 41.1261 108.424 41.3861 104.325 41.7037C104.131 38.271 104.825 34.1584 103.519 30.9758C99.9793 23.0172 88.8832 20.5525 83.3558 26.0225C79.6814 29.1942 77.2484 34.8632 77.9576 39.5533L80.1002 39.2412C80.1695 39.8862 80.2717 40.9282 80.3813 41.8571L78.3333 42.2051L78.8017 44.721C77.4583 44.8765 67.9492 46.3057 72.5445 47.2803C104.754 41.0359 120.822 43.8595 116.626 40.9238ZM102.373 38.1143C102.532 37.5389 101.947 35.6953 103.095 35.9041C102.981 36.5633 103.522 38.3112 102.373 38.1143ZM101.208 36.1793L101.161 38.3221L83.6059 41.3024C83.5366 40.6791 83.4392 39.6708 83.337 38.7669L101.208 36.1793ZM81.2919 39.0639L82.1482 38.9431C82.0863 39.7926 83.0091 41.8799 81.5692 41.6526C81.4749 40.789 81.3824 39.9261 81.2919 39.0639Z" fill="#191919"/>
<path d="M113.697 47.1661C106.537 44.7112 105.177 55.835 111.214 57.8091C116.545 58.688 119.227 49.0619 113.697 47.1661ZM113.243 52.8504C112.359 52.8667 112.152 50.4477 113.243 50.2889C114.124 50.2736 114.331 52.6905 113.243 52.8504ZM117.178 47.847C115.37 45.019 109.44 42.8512 106.949 47.3532C106.354 46.9247 105.667 46.6967 104.967 46.6948C104.267 46.6929 103.579 46.9171 102.982 47.3423C98.5079 40.3474 89.3136 48.43 92.0408 55.7512C96.1039 63.9285 106.85 59.0883 104.072 49.8581C104.364 49.6834 104.685 49.5813 105.014 49.5584C105.342 49.5356 105.671 49.5925 105.979 49.7254C104.24 67.6332 124.102 58.6641 117.175 47.8437L117.178 47.847ZM100.619 58.3182C90.7189 61.5595 89.9488 47.86 97.1401 45.7086C103.669 44.4393 106.494 55.7273 100.619 58.3182ZM117.504 53.8848C113.569 64.456 104.321 57.1903 106.711 49.5242C109.505 42.117 119.704 46.5635 117.499 53.8848H117.504Z" fill="#191919"/>
<path d="M103.346 61.0894C102.065 61.2764 102.991 67.324 102.271 68.8413C99.4348 71.9717 92.5274 68.7434 90.3492 68.0332C88.3949 69.5407 92.7241 70.1727 93.6104 70.7524C93.4414 72.5485 93.5654 74.3654 93.9757 76.1082C93.9757 76.1082 94.8564 76.7749 95.0634 75.9798C94.7365 75.3718 94.9379 74.0329 94.8255 71.0907C103.71 73.3607 105.274 67.7623 103.346 61.0894Z" fill="#191919"/>
<path d="M175.505 64.9772C173.733 63.7448 171.358 64.3246 169.696 65.7581C168.237 67.1721 167.039 68.9158 166.178 70.8833C166.167 70.9217 166.144 70.9539 166.114 70.9733C166.084 70.9926 166.048 70.9977 166.014 70.9873C165.981 70.977 165.952 70.952 165.934 70.9177C165.916 70.8833 165.91 70.8422 165.917 70.8028C165.967 68.1049 165.78 65.408 165.36 62.7539C164.077 55.8145 160.18 52.3904 155.692 52.3665C155.672 52.3673 155.652 52.3626 155.633 52.3528C155.614 52.3429 155.598 52.3283 155.585 52.3099C155.572 52.2915 155.562 52.2699 155.558 52.2467C155.553 52.2235 155.553 52.1994 155.557 52.1762C156.412 47.0216 156.895 41.6952 155.188 36.918C154.611 35.1778 153.645 33.6475 152.389 32.4848C151.134 31.322 149.634 30.5688 148.044 30.3027C145.246 29.7121 142.056 30.5203 140.301 33.1111C139.292 34.7815 138.716 36.7526 138.643 38.791C138.164 44.8952 139.613 49.8692 141.078 60.2185C141.084 60.2484 141.083 60.2797 141.073 60.3084C141.064 60.3372 141.048 60.3621 141.026 60.3802C141.005 60.3983 140.98 60.4087 140.953 60.4101C140.927 60.4115 140.901 60.4039 140.878 60.3882C139.533 59.6162 138.009 59.3683 136.533 59.6812C136.264 59.6257 136.546 59.964 137.312 50.8709C137.555 47.9929 137.736 44.8266 136.27 42.4859C135.427 41.3024 134.282 40.46 133 40.0796C131.718 39.6993 130.365 39.8007 129.135 40.3693C127.921 40.9761 126.826 41.8653 125.919 42.9821C125.012 44.0989 124.312 45.4196 123.861 46.8628C123.124 48.9968 122.096 58.203 122.525 66.5663C122.525 66.5663 119.185 62.1165 117.56 59.8661L116.604 60.8603C118.425 63.2369 125.434 72.4344 126.837 74.3476C137.54 88.9368 148.24 106.299 141.707 115.245C121.739 134.964 113.633 72.4507 111.949 72.851C110.77 73.1272 111.988 74.8393 112.271 78.3133C114.489 89.5818 117.236 100.676 122.439 110.461C132.779 130.197 151.663 117.332 142.44 97.5176C138.721 89.0695 133.669 81.5851 128.339 74.3411H128.855C128.855 74.2974 128.858 74.2537 128.865 74.2106C129.024 73.1396 129.175 72.066 129.317 70.9899C129.321 70.9653 129.319 70.94 129.313 70.9161C129.306 70.8923 129.295 70.8706 129.28 70.8529C128.083 69.4078 126.819 68.0411 125.492 66.7588C124.967 66.2498 125.722 65.384 126.241 65.8887C127.317 66.9234 128.348 68.0129 129.333 69.1572C129.351 69.1808 129.374 69.1978 129.399 69.2062C129.425 69.2145 129.453 69.2137 129.478 69.2039C129.503 69.1941 129.526 69.1757 129.542 69.1511C129.559 69.1265 129.568 69.0968 129.57 69.0658C129.706 67.9585 129.834 66.8505 129.954 65.7418C129.966 65.6157 129.88 65.5895 129.803 65.4982L126.128 61.0321C125.66 60.4589 126.409 59.5866 126.878 60.162C130.152 64.1386 129.926 63.9134 130.02 63.9156C130.037 63.9162 130.055 63.9127 130.072 63.9053C130.088 63.898 130.103 63.8869 130.116 63.8727C130.129 63.8586 130.139 63.8416 130.146 63.8229C130.153 63.8041 130.157 63.7838 130.158 63.7633C130.282 62.5429 130.393 61.3222 130.489 60.1011C130.502 59.9564 130.395 59.9662 130.282 59.815C129.261 58.4607 128.147 57.204 126.952 56.057C126.425 55.5523 127.18 54.6876 127.701 55.1869C129.924 57.3329 130.306 58.2074 130.5 58.202C130.518 58.2017 130.535 58.1973 130.552 58.1892C130.568 58.181 130.582 58.1692 130.595 58.1544C130.607 58.1396 130.616 58.1222 130.623 58.1031C130.629 58.084 130.632 58.0636 130.632 58.0432C130.72 56.7945 130.798 55.5458 130.867 54.2972C130.867 54.1884 130.793 54.1547 130.733 54.0666C129.7 52.5742 128.624 51.1218 127.506 49.7093C127.047 49.1263 127.794 48.2529 128.256 48.8391C130.785 52.0609 130.692 52.211 130.853 52.2044C130.87 52.2037 130.888 52.199 130.904 52.1904C130.92 52.1819 130.934 52.1697 130.946 52.1547C130.958 52.1396 130.968 52.1219 130.974 52.1027C130.98 52.0834 130.983 52.0629 130.982 52.0424C131.033 50.9039 131.074 49.7626 131.107 48.6183C131.129 47.8265 132.19 47.8221 132.167 48.6183C132.13 49.8931 132.082 51.1661 132.023 52.4372C132.019 52.4683 132.024 52.4999 132.036 52.5279C132.048 52.556 132.067 52.5791 132.091 52.5943C132.115 52.6095 132.142 52.6162 132.169 52.6134C132.196 52.6106 132.221 52.5985 132.242 52.5786L133.971 51.2027C134.538 50.7545 135.069 51.8205 134.509 52.2653C131.756 54.4538 131.932 54.2852 131.928 54.395C131.722 58.202 131.647 58.1508 131.717 58.2596C131.739 58.2916 131.771 58.3125 131.806 58.3178C131.841 58.323 131.876 58.3123 131.905 58.2879L134.104 56.64C134.681 56.205 135.213 57.2731 134.641 57.7027L131.606 59.9792C131.498 60.0586 131.594 59.9303 131.179 64.1125C131.174 64.1418 131.176 64.1723 131.185 64.2002C131.195 64.2281 131.211 64.2522 131.232 64.2697C131.253 64.2872 131.278 64.2972 131.304 64.2987C131.329 64.3001 131.355 64.2928 131.377 64.2778C132.233 63.7782 133.022 63.137 133.719 62.3743C134.216 61.8305 134.967 62.7006 134.469 63.2445C133.479 64.318 132.329 65.1741 131.076 65.7712C131.053 65.7819 131.033 65.7994 131.018 65.822C131.004 65.8446 130.994 65.8714 130.991 65.8995C130.592 69.5977 130.523 69.539 130.588 69.6488C130.598 69.6661 130.611 69.6809 130.626 69.6925C130.64 69.7041 130.657 69.7121 130.674 69.7162C130.692 69.7202 130.71 69.7202 130.727 69.7161C130.745 69.712 130.761 69.7039 130.776 69.6923C131.381 69.2951 131.967 68.8594 132.532 68.3871C133.089 67.9216 133.618 68.9897 133.069 69.4487C132.232 70.1555 131.342 70.7743 130.41 71.2977C130.389 71.308 130.369 71.3248 130.355 71.3463C130.34 71.3679 130.331 71.3935 130.327 71.4207C130.028 73.7733 129.938 74.1399 129.939 74.1899C129.94 74.2104 129.943 74.2307 129.951 74.2494C129.958 74.2682 129.968 74.2852 129.981 74.2993C129.994 74.3135 130.009 74.3246 130.025 74.3319C130.042 74.3393 130.059 74.3428 130.077 74.3422H145.653C145.671 74.3423 145.688 74.3384 145.705 74.3307C145.721 74.3229 145.736 74.3115 145.748 74.297C145.761 74.2826 145.771 74.2654 145.778 74.2464C145.784 74.2275 145.788 74.2072 145.788 74.1866C145.862 72.5595 145.934 70.9326 146.004 69.3062C146.017 69.0886 145.619 69.0419 144.197 67.4277C143.551 66.7302 142.935 65.9982 142.351 65.2317C141.897 64.6422 142.647 63.7677 143.1 64.3615C143.953 65.4781 144.875 66.5214 145.858 67.4832C145.878 67.5026 145.903 67.5151 145.929 67.5193C145.955 67.5235 145.981 67.5193 146.005 67.5071C146.029 67.495 146.05 67.4753 146.065 67.4503C146.08 67.4254 146.088 67.3961 146.09 67.3657C146.181 65.1454 146.268 62.9247 146.35 60.7036C146.351 60.6808 146.348 60.6579 146.341 60.6367C146.334 60.6154 146.322 60.5963 146.308 60.5807C146.176 60.4339 146.053 60.2729 145.941 60.1457L142.729 56.5889C142.235 56.0451 142.985 55.1749 143.479 55.7188C143.572 55.8275 146.322 58.8731 146.418 58.972C146.488 57.0867 146.552 55.1974 146.611 53.3041C146.613 53.2776 146.608 53.2512 146.598 53.2274C146.588 53.2035 146.573 53.1831 146.554 53.1681C146.287 52.8876 146.037 52.5863 145.805 52.2664L142.481 48.3507C142.001 47.7906 142.75 46.915 143.23 47.4806L146.451 51.2647C146.469 51.2898 146.494 51.3076 146.521 51.3157C146.549 51.3237 146.578 51.3216 146.604 51.3096C146.63 51.2975 146.653 51.2763 146.668 51.2487C146.683 51.2211 146.691 51.1887 146.689 51.1559C146.728 49.9007 146.872 44.6939 146.872 44.6939C146.872 44.6708 146.869 44.6479 146.861 44.6265C146.854 44.6052 146.842 44.5859 146.828 44.5699C146.671 44.4046 147.009 44.8081 143.549 40.5694C143.08 39.994 143.83 39.1228 144.298 39.6993L146.683 42.6165C146.7 42.6435 146.725 42.6631 146.753 42.6723C146.782 42.6815 146.811 42.6799 146.839 42.6676C146.866 42.6553 146.889 42.6331 146.905 42.6042C146.92 42.5754 146.927 42.5415 146.924 42.5077C146.951 41.4823 146.976 40.457 146.999 39.4317C147.005 39.273 147.063 39.1231 147.162 39.0132C147.261 38.9033 147.392 38.8419 147.529 38.8419C147.666 38.8419 147.797 38.9033 147.896 39.0132C147.995 39.1231 148.053 39.273 148.059 39.4317C148.029 40.7703 147.998 42.1096 147.965 43.4496C148.021 43.3778 150.11 40.9316 150.695 40.2453C151.176 39.6819 151.925 40.5542 151.445 41.1154C150.764 41.9131 150.082 42.7107 149.4 43.5084C149.027 44.0795 148.556 44.555 148.018 44.9049C147.991 44.915 147.968 44.9342 147.952 44.9598C147.935 44.9855 147.925 45.0164 147.924 45.0485C147.763 51.1516 147.698 51.1853 147.785 51.294C147.809 51.3236 147.842 51.3411 147.877 51.3429C147.912 51.3448 147.947 51.3307 147.973 51.3038L150.89 48.6814C151.424 48.2028 152.178 49.0675 151.64 49.5516C150.743 50.351 147.73 53.0539 147.73 53.0539C147.636 53.1355 147.694 52.8875 147.473 59.145C147.47 59.1772 147.475 59.2099 147.489 59.2385C147.502 59.2671 147.523 59.2901 147.548 59.3045C147.573 59.3188 147.601 59.3237 147.629 59.3185C147.656 59.3133 147.682 59.2983 147.702 59.2755C148.495 58.4271 149.396 57.7259 150.373 57.1969C151.013 56.9196 151.29 58.1084 150.654 58.3847C149.956 58.7599 149.313 59.2614 148.75 59.8705C148.379 60.2847 147.956 60.6312 147.495 60.8983C147.368 60.9549 147.426 60.5448 147.16 67.3831C147.156 67.4158 147.161 67.449 147.175 67.4781C147.188 67.5073 147.209 67.5307 147.235 67.5451C147.26 67.5595 147.289 67.5641 147.317 67.5583C147.345 67.5524 147.37 67.5364 147.39 67.5126C147.851 67.0568 147.467 67.4375 149.484 65.36C149.992 64.8347 150.744 65.7027 150.233 66.2302C149.524 66.9669 148.815 67.6993 148.108 68.4273C147.818 68.7833 147.494 69.1003 147.144 69.3725C147.122 69.386 147.104 69.4055 147.091 69.4292C147.077 69.453 147.07 69.4803 147.068 69.5085C147.003 71.0606 146.861 74.1856 146.861 74.1856C146.861 74.2269 146.875 74.2665 146.901 74.2956C146.926 74.3248 146.96 74.3411 146.996 74.3411C161.81 74.3411 177.996 74.3291 177.876 74.3411C177.912 74.3375 177.944 74.3179 177.967 74.2866C177.991 74.2553 178.002 74.2147 178 74.1736C177.879 71.7143 177.219 66.1856 175.505 64.9772Z" fill="#191919"/>
<path d="M110.666 44.3098L101.212 44.4501L103.15 46.6984C103.705 46.2859 104.341 46.0437 104.998 45.9944C105.655 45.9452 106.312 46.0904 106.908 46.4167C106.908 46.4167 107.393 44.8743 110.666 44.3098Z" fill="#FFCA2D"/>
<path d="M108.849 59.9324L102.908 58.2465C102.908 58.2465 104.848 56.2756 104.848 54.4461C104.814 53.0332 104.693 51.625 104.484 50.2324H105.455C105.346 52.2163 105.509 54.2075 105.938 56.132C106.179 56.9595 106.561 57.7222 107.061 58.375C107.561 59.0278 108.169 59.5574 108.849 59.9324Z" fill="#FFCA2D"/>
<path d="M86.318 59.1438C85.8496 60.4142 84.7254 61.9359 83.4466 61.9641C83.3283 61.9711 83.2143 62.0171 83.1177 62.0966C83.0212 62.1762 82.9461 62.286 82.9014 62.4132C82.8567 62.5405 82.8441 62.6799 82.8652 62.8151C82.8862 62.9504 82.94 63.0759 83.0203 63.1769C82.698 65.6471 83.395 71.1105 83.3379 72.4375C83.6068 89.8112 81.9935 117.135 70.5854 123.031C65.7812 125.533 61.9064 123.528 59.5053 119.691L57.8667 119.534C64.8434 132.254 83.2142 126.489 84.3384 85.5137L84.4406 83.1425C84.5567 72.8737 84.7094 65.9766 84.1483 63.2607C84.8653 62.9982 85.5245 62.5575 86.08 61.9694C86.6356 61.3813 87.0742 60.6599 87.3654 59.8551C87.6718 59.0317 86.6272 58.3149 86.318 59.1438Z" fill="#191919"/>
<path d="M61.8109 33.0032L59.8941 35.2873C59.8279 34.2605 59.7701 33.2352 59.7208 32.2113C60.0393 31.9068 60.3307 31.488 60.5743 31.2324L62.4414 29.23C62.9576 28.6742 62.1847 27.7801 61.6694 28.3337L59.6468 30.5091C59.5725 28.6709 59.5244 26.8309 59.5025 24.9891C59.7967 24.7715 60.0646 24.4452 60.3091 24.2397L61.9468 22.7941C62.4986 22.3079 61.9561 21.2083 61.395 21.701C60.7626 22.2579 60.1246 22.8126 59.4931 23.3728C59.4875 22.2894 59.4919 21.2068 59.5063 20.1249C59.8167 19.8836 60.1079 19.6106 60.3766 19.3092L62.1566 17.6406C62.7028 17.1283 61.9271 16.2364 61.3856 16.7444L59.5259 18.4847C59.5459 17.5152 59.5725 16.5453 59.6056 15.5751C59.6337 14.7615 58.5422 14.7626 58.5141 15.5751C58.4841 16.4155 58.4604 17.2574 58.4429 18.1007C57.8688 17.5141 57.2333 17.0138 56.5514 16.6117C55.9265 16.2419 55.3738 17.3339 56.0006 17.7048C56.6352 18.0717 57.2255 18.5339 57.7562 19.0797C57.9633 19.2972 58.1731 19.6344 58.412 19.8954C58.3976 21.0462 58.3923 22.1963 58.3961 23.3456C58.3024 23.2629 56.8821 21.9414 56.9786 22.0338C56.4409 21.5248 55.6623 22.4156 56.2076 22.9279C58.382 24.9695 58.0045 24.6682 58.4101 25.0108C58.4326 26.9078 58.4829 28.8025 58.561 30.6951C57.9896 30.1027 57.3678 29.5793 56.7051 29.1332C56.5817 29.063 56.4401 29.0495 56.3085 29.0953C56.1769 29.1412 56.0651 29.243 55.9954 29.3804C55.9257 29.5178 55.9032 29.6807 55.9325 29.8365C55.9617 29.9924 56.0406 30.1296 56.1533 30.2209C57.0447 30.8744 57.8763 31.6322 58.635 32.4822C58.6912 33.6105 58.7571 34.7388 58.8327 35.8671C58.0401 35.3933 57.2506 34.9125 56.4643 34.4248C55.8469 34.0365 55.2951 35.1307 55.9134 35.5125C56.5692 35.9236 57.225 36.3304 57.8921 36.7231C58.3689 37.007 58.9591 37.5203 59.5184 37.3267C60.0777 37.1331 60.5696 36.2826 60.9659 35.804L62.5819 33.907C63.0729 33.3153 62.3009 32.418 61.8109 33.0032Z" fill="#191919"/>
<path d="M69.9829 32.6975C68.3389 34.9511 66.8257 37.3289 65.4532 39.8154C65.0729 40.5039 66.0154 41.1402 66.3901 40.4549C67.7111 38.0564 69.168 35.7625 70.7512 33.5883C71.2065 32.9749 70.4373 32.0743 69.9829 32.6975Z" fill="#191919"/>
<path d="M57.403 39.2704L49.6955 39.3693C49.7307 38.9315 49.7467 38.4919 49.7433 38.0521C49.9504 37.8966 51.6095 36.4348 51.513 36.5196C52.0667 36.0356 51.5233 34.9359 50.9631 35.4265C50.55 35.7537 50.1548 36.1104 49.7799 36.4946C49.8017 35.2938 49.8077 34.0937 49.7977 32.8943C49.9382 32.7638 51.9346 30.732 51.8409 30.8277C52.3703 30.2904 51.5964 29.3985 51.069 29.9315L49.7742 31.2465C49.7555 30.3219 49.7283 29.3978 49.6927 28.474C50.4117 27.7276 51.0548 26.8883 51.6095 25.9723C52.0218 25.3099 51.0718 24.6768 50.6727 25.3327C50.3373 25.8765 50.193 26.0495 49.6225 26.8413C49.5784 25.9875 49.5288 25.1337 49.4688 24.282C49.4126 23.4749 48.3212 23.4673 48.3793 24.282C48.4373 25.0967 48.4842 25.9375 48.5273 26.7652L47.3431 25.6775C46.7969 25.1783 46.0193 26.0702 46.5711 26.5738C48.7474 28.5588 48.4814 28.3315 48.6107 28.4294C48.6556 29.5627 48.6869 30.6954 48.7043 31.8273C48.0798 31.1554 47.41 30.5425 46.7014 29.9945C46.1158 29.5432 45.5687 30.6406 46.1514 31.0822C47.7516 32.3135 48.1591 33.0836 48.7165 33.262C48.724 34.3953 48.7159 35.5294 48.6922 36.6643C48.5114 36.4913 48.3362 36.3021 48.265 36.2368C47.9343 35.9344 47.6185 35.6125 47.3103 35.2753C46.7988 34.7195 46.0259 35.6146 46.5393 36.1715C47.198 36.8904 47.9065 37.5452 48.6575 38.1294C48.6575 38.1849 48.62 39.3715 48.621 39.3922L27.4312 39.6652C27.4312 38.6308 27.4209 37.5986 27.4097 36.5598L31.4166 32.6126C31.9543 32.084 31.1777 31.1986 30.6456 31.7174L27.3881 34.9294C27.3531 32.2733 27.2982 29.62 27.2232 26.9697C28.3804 25.4217 29.6409 23.9822 30.9931 22.6646C31.5309 22.1414 30.758 21.2506 30.223 21.7683C29.1451 22.8138 28.1251 23.937 27.1689 25.1315C27.1127 23.3469 27.0459 21.5642 26.9684 19.7833C27.7899 19.0336 28.5773 18.2349 29.3274 17.3904C29.853 16.8465 29.0791 15.9546 28.5564 16.4941C28.0046 17.063 27.4565 17.634 26.9028 18.1985C26.8579 17.2218 26.8104 16.2461 26.7604 15.2716C27.1099 15.0867 27.3469 14.6853 28.6622 12.8787C29.1138 12.2543 28.3465 11.3559 27.8921 11.9835L27.0855 13.0712C26.975 13.2267 26.8316 13.4888 26.6742 13.6846C26.6193 12.6434 26.5609 11.6071 26.499 10.576C26.4513 9.76677 25.3608 9.76133 25.4095 10.576C25.4626 11.4868 25.5135 12.3964 25.5622 13.305C25.3533 13.081 24.2281 12.0694 24.3218 12.1553C23.7747 11.6583 22.998 12.548 23.5508 13.0505C25.9257 15.2107 25.2849 14.6875 25.6531 14.9986C25.7155 16.2102 25.7733 17.4219 25.8264 18.6336C25.4891 18.3606 25.2418 18.2268 23.9442 17.175C23.3821 16.7215 22.82 17.8081 23.3934 18.2682C24.1663 18.9653 25.0037 19.5603 25.8901 20.0422C25.9688 21.9369 26.0378 23.8317 26.0971 25.7264L22.9025 22.9463C22.3404 22.4579 21.796 23.5565 22.3516 24.034L26.1402 27.3406C26.2158 30.0453 26.2701 32.7555 26.3032 35.4711C24.6976 34.4696 23.166 33.316 21.7239 32.022C21.1683 31.5249 20.624 32.6246 21.174 33.1151C22.4058 34.2226 23.7024 35.2293 25.0544 36.128C25.4497 36.4367 25.8741 36.6922 26.3192 36.8894C26.3285 37.8183 26.3348 38.7468 26.3379 39.675L13.3878 39.8414C13.2432 39.8414 13.1045 39.9081 13.0022 40.0268C12.9 40.1455 12.8425 40.3065 12.8425 40.4744C12.8425 40.6423 12.9 40.8033 13.0022 40.9221C13.1045 41.0408 13.2432 41.1075 13.3878 41.1075L57.4133 40.5299C57.5461 40.5103 57.6681 40.4348 57.7561 40.3178C57.8441 40.2007 57.892 40.0502 57.8907 39.8948C57.8894 39.7394 57.8391 39.59 57.7492 39.4749C57.6593 39.3598 57.5361 39.287 57.403 39.2704Z" fill="#191919"/>
</svg>
