<svg width="60" height="60" viewBox="0 0 60 60" fill="none" xmlns="http://www.w3.org/2000/svg">
<rect width="60" height="60" rx="10" fill="#FDF6B2"/>
<path d="M35.6001 13.4624V16.0874C35.6001 18.5619 35.6001 19.7992 36.3701 20.5674C37.1366 21.3374 38.3738 21.3374 40.8501 21.3374H43.4751" stroke="#723B13" stroke-width="2.5" stroke-linecap="round" stroke-linejoin="round"/>
<path d="M23 28.25H37M23 33.5H37M23 38.75H30.2975M16 37V23C16 18.051 16 15.5748 17.5383 14.0383C19.0748 12.5 21.551 12.5 26.5 12.5H33.801C34.515 12.5 34.8737 12.5 35.1957 12.633C35.516 12.766 35.7697 13.018 36.2755 13.5255L42.9745 20.2245C43.482 20.732 43.734 20.984 43.867 21.306C44 21.6263 44 21.985 44 22.699V37C44 41.949 44 44.4253 42.4617 45.9618C40.9252 47.5 38.449 47.5 33.5 47.5H26.5C21.551 47.5 19.0748 47.5 17.5383 45.9618C16 44.4253 16 41.949 16 37Z" stroke="#723B13" stroke-width="2.5" stroke-linecap="round" stroke-linejoin="round"/>
</svg>
