<svg width="183" height="133" viewBox="0 0 183 133" fill="none" xmlns="http://www.w3.org/2000/svg">
<path d="M144.223 57.6692C143.716 54.7243 142.403 50.4708 139.671 49.3655C139.368 49.0917 139.052 48.8387 138.724 48.6078C138.37 48.401 136.034 52.7104 135.355 54.5791C135.027 55.6483 134.789 56.7521 134.646 57.8748C134.438 58.9707 134.499 60.1122 134.823 61.1695C134.9 61.3501 135.008 61.5105 135.141 61.6405C135.274 61.7706 135.428 61.8676 135.594 61.9256C135.761 61.9835 135.936 62.0012 136.108 61.9774C136.281 61.9537 136.447 61.889 136.597 61.7875C137.314 61.2644 137.92 60.5603 138.37 59.7278C139.764 57.5341 140.915 55.1462 141.796 52.6199C143.451 55.6061 143.458 58.9768 143.87 59.9334C143.87 60.1402 144.224 60.9639 144.402 60.7582C144.755 60.3458 144.223 58.2861 144.223 57.6692Z" fill="#191919"/>
<path d="M172.072 102.975C167.46 101.739 145.11 96.3813 138.724 94.7373C138.153 94.502 137.556 94.3635 136.95 94.326C136.596 94.326 136.596 94.5317 136.241 94.7373C135.455 95.2034 134.62 95.5497 133.757 95.7677C132.884 96.0056 131.993 96.1433 131.097 96.179C131.005 96.1872 130.919 96.2334 130.854 96.309C130.789 96.3847 130.749 96.4848 130.742 96.5914C130.919 98.0331 131.275 99.268 131.452 100.71C131.981 105.012 135.261 105.502 137.66 107.303C138.197 107.706 139.611 108.951 138.724 109.774C137.237 111.156 133.969 111.311 133.045 110.598C132.247 110.164 131.415 109.82 130.561 109.569C129.581 109.491 128.62 109.212 127.724 108.745C125.848 107.657 126.748 106.476 126.482 105.244C126.305 104.832 126.128 104.832 125.772 104.42C125.24 103.802 125.24 102.773 125.063 102.155C124.786 100.802 124.608 99.4241 124.531 98.0364C124.524 97.9299 124.484 97.8297 124.419 97.7541C124.354 97.6784 124.268 97.6323 124.176 97.624C122.555 98.1039 120.882 98.312 119.209 98.2421C117.613 98.2421 116.016 98.4477 114.42 98.4477C114.328 98.4557 114.242 98.5017 114.177 98.5774C114.112 98.6531 114.072 98.7534 114.065 98.8601C114.065 102.009 113.95 103.829 114.597 104.832C114.775 105.449 115.13 105.862 114.953 106.48C114.775 107.509 113.888 107.922 113.179 108.127C112.122 108.764 111.163 109.599 110.341 110.598C108.945 111.999 107.21 112.862 105.374 113.069C104.761 113.133 104.145 112.99 103.6 112.658C103.245 112.245 103.6 112.04 103.778 111.627C105.228 109.566 106.422 107.279 107.325 104.832C107.56 103.686 107.62 102.501 107.502 101.331C107.502 100.302 107.325 99.0657 107.325 98.0364C107.325 97.1345 106.034 98.1962 99.343 95.9767C99.1649 92.4753 99.1649 88.975 98.9878 85.6792C98.9692 85.5233 98.907 85.3788 98.8107 85.2679C97.1118 84.8248 95.395 84.4809 93.6665 84.2375C93.0369 84.2375 92.6933 83.6698 91.361 84.4443C82.2162 87.8205 82.7851 87.6708 75.7514 90.0043C75.5733 90.0043 75.5733 90.2099 75.5733 90.4167C76.8824 101.052 77.0961 104.377 78.5891 107.715C79.8261 110.482 81.7821 111.179 81.7821 113.482C81.8205 113.82 81.8002 114.164 81.7224 114.494C81.6447 114.823 81.5109 115.131 81.3292 115.4C81.1474 115.669 80.9212 115.892 80.6639 116.058C80.4066 116.224 80.1234 116.328 79.8309 116.365C79.4173 116.437 78.995 116.4 78.5953 116.257C78.1955 116.115 77.8283 115.87 77.5206 115.541C75.272 114.048 73.7963 111.365 73.7963 112.245C73.2265 112.73 72.5497 113.015 71.8451 113.069C70.9576 113.069 70.9576 111.422 70.9576 110.804V106.48C70.6688 104.48 68.5693 94.9854 68.2969 93.0933C68.2969 92.8877 68.1198 92.682 67.9427 92.8877C66.7822 93.3271 65.5966 93.6711 64.3945 93.917C64.2174 93.917 64.2174 94.1226 64.2174 94.3294C63.634 105.17 62.7552 108.282 63.3308 108.951C63.7197 110.274 63.8409 111.683 63.685 113.069C63.685 114.056 63.5089 115.751 62.4433 115.751C62.089 115.751 61.7338 115.546 61.3796 115.751C60.8473 115.957 60.4921 116.781 60.3149 117.193C59.2561 118.833 57.3077 120.693 55.526 120.693C55.1149 120.685 54.7106 120.57 54.3425 120.357C53.9743 120.145 53.6516 119.839 53.3976 119.464C52.3089 117.357 55.7127 113.675 56.5896 111.641C57.0122 110.608 57.2537 109.487 57.3 108.345C57.3877 104.764 57.2096 101.182 56.7677 97.6363C56.7606 97.5298 56.7209 97.4298 56.6557 97.3543C56.5906 97.2789 56.5043 97.233 56.4125 97.2251C37.8987 104.525 29.1302 106.852 22.1783 109.787C22.1016 109.813 22.0343 109.867 21.9864 109.941C21.9385 110.016 21.9126 110.106 21.9126 110.199C21.9126 110.291 21.9385 110.382 21.9864 110.456C22.0343 110.53 22.1016 110.584 22.1783 110.61C44.1258 120.05 60.6519 126.965 97.2108 138.413C133.815 123.235 154.379 112.802 172.242 103.814C172.426 103.387 172.426 102.975 172.072 102.975ZM96.5071 100.71C96.33 100.71 96.098 100.409 96.33 100.298C96.4195 100.255 96.9673 99.9799 95.9758 99.268C95.276 98.7662 92.1792 99.0445 90.4764 99.886C88.6474 100.947 90.0971 101.465 90.2993 101.533C91.5272 101.798 92.7805 101.868 94.0246 101.739C94.1362 101.728 94.2474 101.765 94.337 101.843C94.4266 101.921 94.4883 102.035 94.5102 102.162C94.5321 102.29 94.5128 102.422 94.4558 102.534C94.3989 102.646 94.3084 102.73 94.2017 102.769C91.62 104.268 88.6734 103.149 88.1709 101.739C87.5934 100.12 88.89 98.8165 90.2993 98.2387C92.3341 97.2629 94.6069 97.1897 96.6852 98.0331C96.9492 98.1393 97.1933 98.3031 97.4043 98.5159C97.5058 98.6185 97.5863 98.7462 97.64 98.8896C97.6936 99.033 97.719 99.1885 97.7143 99.3447C97.7096 99.501 97.6749 99.654 97.6128 99.7927C97.5507 99.9314 97.4627 100.052 97.3552 100.146C97.087 100.362 96.8032 100.551 96.5071 100.71Z" fill="#191919"/>
<path d="M40.4559 44.9004C40.4058 44.9004 40.3596 44.9116 40.3057 44.9194C40.2182 44.8735 40.1237 44.8481 40.0277 44.8448C39.9317 44.8416 39.8361 44.8605 39.7464 44.9004C37.6845 45.8892 35.5462 46.6478 33.3605 47.1658C29.2896 47.1658 26.2834 48.4007 27.5068 48.4007C29.2806 48.0088 31.0889 47.8699 32.8917 47.9872C32.6676 49.5543 32.6461 51.1514 32.8281 52.7258C32.9947 54.1686 33.1833 55.8148 34.247 56.4329C36.5515 57.9617 39.164 54.1843 40.1007 51.2841C40.6432 49.4424 40.826 47.4836 40.6359 45.5497C40.8525 45.2413 40.8861 44.7339 40.4559 44.9004Z" fill="#191919"/>
<path d="M40.1004 41.8115C39.7462 41.8115 39.9233 43.0409 40.2785 44.0769C40.9772 46.4813 40.9772 49.0855 40.2785 51.4899C39.5228 53.5272 37.2626 56.433 35.8437 56.8442C34.4248 57.2555 34.602 58.6983 36.7303 58.4927C38.8586 58.2871 41.6974 57.8747 41.6974 57.8747C41.6974 57.8747 48.2604 52.5203 44.5351 42.2284L40.1004 41.8115Z" fill="#FFCA2D"/>
<path d="M136.773 45.3117C134.874 47.2119 133.308 49.5194 132.162 52.1078C131.131 54.5978 130.565 58.0802 130.743 58.4926C132.185 59.9405 133.728 61.2488 135.355 62.4041C135.887 62.6098 136.241 61.9918 135.887 61.3737C133.872 58.744 136.272 53.507 137.838 50.4593C138.639 49.0052 139.737 47.8038 141.035 46.9624C141.385 46.5478 136.773 45.1061 136.773 45.3117Z" fill="#FFCA2D"/>
<path d="M98.6367 14.833C97.3457 17.4485 95.8619 19.9291 94.202 22.2471C93.4925 22.8652 94.202 23.8945 93.4925 24.7181C93.3154 24.9238 90.4767 24.9238 91.009 25.9542C91.3642 26.7778 92.4279 29.4545 92.7831 29.2488C96.1522 28.0128 99.5214 22.2471 100.056 20.8054C100.233 19.7761 98.6367 14.4218 98.6367 14.833Z" fill="#FFCA2D"/>
<path d="M107.682 40.5753C107.6 38.4969 107.779 36.4156 108.214 34.3973C107.682 33.7792 107.86 32.7499 107.682 31.9263C104.84 33.7748 103.781 37.4863 103.781 40.7809C103.782 42.7876 103.96 44.7889 104.313 46.7534C104.686 48.8086 104.861 50.8683 105.2 52.9314C105.572 55.1934 106.087 59.9331 106.264 60.1399C107.329 61.5816 108.393 63.2289 109.457 64.8762C109.634 65.2886 110.16 65.2853 110.345 64.6706C111.027 62.394 112.473 56.6385 112.296 56.2272C110.088 51.103 108.197 46.2326 107.682 40.5753Z" fill="#FFCA2D"/>
<path d="M119.036 61.5818C116.314 52.1013 119.08 41.2696 114.069 32.5435C113.509 33.5213 112.854 34.4213 112.118 35.2257C112.911 39.2775 113.268 43.4278 113.182 47.5818C113.182 51.2888 113.537 59.5266 113.715 59.7322C114.956 61.7919 116.025 64.0573 117.262 66.117C117.439 66.5283 118.148 66.3226 118.148 65.9103C118.148 64.6708 119.213 61.7875 119.036 61.5818Z" fill="#FFCA2D"/>
<path d="M67.4172 46.7535C66.6789 42.4687 64.8836 40.067 63.87 38.1045C63.2381 37.296 62.7012 36.3941 62.273 35.4222C62.0959 34.8042 62.273 33.9806 62.0959 33.3636C61.9188 32.9513 61.3864 32.7456 61.2084 32.3332C61.0312 32.1276 60.677 32.3332 60.4989 32.5389C57.8999 37.226 60.9071 43.4689 62.0959 47.3671C62.6069 49.0143 62.789 50.7749 62.6282 52.5158C62.5733 54.4529 62.1492 56.3518 61.3864 58.0758C61.2772 60.3429 61.3365 62.6166 61.5636 64.8719C61.5636 65.2843 61.9188 65.4899 62.273 65.2843C64.1687 63.2234 65.9463 61.0208 67.5943 58.6905C68.1025 56.6856 68.3418 54.6019 68.3038 52.5125C67.9495 50.6662 67.7724 48.8132 67.4172 46.7535Z" fill="#FFCA2D"/>
<path d="M83.3806 52.3132C80.3436 49.7953 79.2886 50.1696 76.2862 45.5182C72.9613 40.3684 70.7281 34.2596 67.7719 32.5452C66.8844 31.9283 65.8207 33.9869 66.3521 34.8106C66.8834 35.6343 67.5938 36.2523 68.1262 37.0759C69.0989 38.9431 69.987 40.868 70.7868 42.8427C71.7119 44.879 72.7679 46.7353 73.8027 48.8151C75.905 53.0419 77.9746 54.8926 81.9617 57.4642C82.1389 57.6709 84.4453 56.6405 85.3309 56.4349C85.6861 56.2292 85.8632 55.8168 85.509 55.4056C84.9776 54.5785 83.5587 52.5199 83.3806 52.3132Z" fill="#FFCA2D"/>
<path d="M17.2176 131.189C22.4943 136.142 28.1328 140.552 34.069 144.369C40.5532 148.527 51.0244 153.894 58.0159 156.104C59.9342 156.75 61.8907 157.231 63.8695 157.546C64.4009 157.546 64.5789 156.928 64.0466 156.722C63.1591 156.517 62.4496 156.104 61.5631 155.899C60.6765 155.693 59.9671 155.281 59.0795 155.075C47.7633 151.447 36.9947 145.821 27.1508 138.394C23.927 135.976 20.5877 133.656 17.5728 130.98C17.5642 130.947 17.5495 130.917 17.5298 130.891C17.5101 130.866 17.4858 130.845 17.4587 130.832C17.4316 130.819 17.4022 130.812 17.3727 130.813C17.3433 130.814 17.3143 130.823 17.288 130.839C17.2617 130.854 17.2386 130.876 17.2204 130.903C17.2022 130.93 17.1893 130.961 17.1825 130.995C17.1758 131.028 17.1755 131.063 17.1815 131.096C17.1876 131.13 17.1999 131.161 17.2176 131.189Z" fill="#191919"/>
<path d="M15.0892 129.954C11.3812 131.568 4.9818 139.214 3.73715 142.104C3.26078 142.811 2.84489 143.569 2.49538 144.37C2.31826 144.987 2.84962 145.599 3.20483 144.987C3.55811 144.254 3.97414 143.564 4.44659 142.928C4.86418 142.192 5.33914 141.503 5.86548 140.868C7.7472 138.194 9.8242 135.714 12.0733 133.454C13.3151 132.425 14.5569 131.396 15.6215 130.365C15.4444 130.159 15.4444 129.954 15.0892 129.954Z" fill="#191919"/>
<path d="M139.434 123.158C139.434 122.745 139.079 122.54 138.725 122.54C136.325 123.778 99.8852 139.319 97.2169 140.868C42.6908 121.23 46.6693 122.54 46.1312 122.54C46.0396 122.548 45.9535 122.594 45.8886 122.669C45.8236 122.745 45.784 122.845 45.7769 122.951C45.6884 130.367 45.7769 147.252 45.9541 147.252C48.3034 148.561 50.7344 149.663 53.2266 150.548C56.7747 151.822 62.7949 154.065 65.6442 154.666C66.2003 154.554 66.7386 154.346 67.2412 154.048C67.9506 153.842 68.6601 153.842 69.3695 153.637C72.9418 153.222 80.506 156.151 87.1075 156.726C91.9966 157.151 99.7428 155.593 104.491 154.46C116.693 151.547 118.703 151.159 132.872 147.046C135.71 146.223 139.435 147.459 139.435 146.841C139.966 139.015 139.523 130.985 139.434 123.158Z" fill="#191919"/>
<path d="M109.279 24.7222C108.208 27.0906 107.545 29.6789 107.328 32.342C107.328 34.49 107.831 35.0108 109.279 35.431C109.911 35.6679 110.567 35.8066 111.23 35.8434C113.482 35.8434 114.285 33.8518 114.777 31.3126C115.05 30.3082 115.228 29.2725 115.31 28.2236C115.295 28.1618 115.267 28.1053 115.228 28.0588C115.19 28.0123 115.143 27.9774 115.09 27.957C115.038 27.9367 114.982 27.9315 114.927 27.9419C114.873 27.9523 114.821 27.9781 114.777 28.0169C113.728 30.4543 113.718 34.4631 111.584 35.0197C110.871 35.1467 110.141 35.0759 109.456 34.8129C108.061 34.4084 107.383 34.1156 108.037 30.9014C108.412 29.054 108.747 26.9898 109.279 25.1357C109.633 24.7222 109.402 24.4473 109.279 24.7222Z" fill="#191919"/>
<path d="M106.263 27.6012C106.048 27.9258 105.931 28.3241 105.931 28.7339C105.931 29.1436 106.048 29.5419 106.263 29.8665C106.339 30.108 106.492 30.3065 106.69 30.4214C106.888 30.5364 107.116 30.559 107.328 30.4846C107.505 30.4846 107.505 30.2778 107.505 30.0722C106.904 29.3748 106.53 29.0596 106.618 28.4249C106.641 28.2155 106.723 28.0209 106.852 27.8718C106.98 27.7226 107.148 27.6274 107.328 27.6012C107.712 27.6012 107.225 26.4847 106.263 27.6012Z" fill="#191919"/>
<path d="M115.31 31.7197C116.369 32.3355 117.393 31.0234 116.907 29.6611C116.794 29.224 116.539 28.8548 116.197 28.6307C115.842 28.4474 115.774 28.9 115.843 29.0431C115.996 29.2749 116.106 29.5408 116.167 29.8241C116.228 30.1075 116.238 30.4023 116.197 30.6904C116.114 30.8797 115.987 31.0381 115.83 31.1474C115.673 31.2568 115.493 31.3125 115.31 31.3084C115.287 31.335 115.268 31.367 115.255 31.4023C115.242 31.4376 115.235 31.4756 115.235 31.5141C115.235 31.5525 115.242 31.5905 115.255 31.6258C115.268 31.6612 115.287 31.6931 115.31 31.7197Z" fill="#191919"/>
<path d="M92.25 28.8371C93.4514 31.3394 94.8783 33.6864 96.5067 35.8388C99.1789 39.6721 99.4763 39.671 99.8758 40.3695C100.32 41.0231 100.861 41.5807 101.472 42.0168C101.649 42.0168 101.827 42.0168 101.827 41.8112C101.406 40.3483 97.8524 36.3518 97.2151 35.4264C95.6182 33.3678 94.1993 30.8957 92.6023 28.8326C92.5792 28.8054 92.5517 28.7838 92.5213 28.7693C92.4909 28.7547 92.4582 28.7474 92.4253 28.7478C92.3924 28.7482 92.36 28.7564 92.3298 28.7717C92.2997 28.787 92.2726 28.8093 92.25 28.8371Z" fill="#191919"/>
<path d="M100.765 42.2228C100.233 48.4009 100.233 54.7857 100.233 61.1694C100.233 72.1486 100.017 88.1134 100.588 93.09C100.588 93.1718 100.616 93.2502 100.666 93.3081C100.716 93.3659 100.784 93.3984 100.854 93.3984C100.924 93.3984 100.992 93.3659 101.042 93.3081C101.092 93.2502 101.12 93.1718 101.12 93.09C101.298 90.4078 101.12 87.53 101.12 84.8522C101.12 81.3519 101.298 45.3119 101.298 42.2228C100.943 42.0172 100.765 42.0172 100.765 42.2228Z" fill="#191919"/>
<path d="M123.115 52.7259C124.509 60.625 131.228 80.9786 132.339 84.6465C133.018 87.1145 133.848 89.5231 134.822 91.8539C135.006 92.2629 135.355 91.8539 135.355 91.6482C133.889 85.4076 133.526 85.725 131.097 77.2313C129.018 69.9669 126.15 62.1259 123.647 52.7248C123.523 52.2587 123.055 52.3872 123.115 52.7259Z" fill="#191919"/>
<path d="M97.2183 3.50598C96.9594 4.03683 96.7688 4.47493 96.3308 4.124C96.2961 4.09606 93.3467 0.659471 93.3159 0.622591C93.1378 0.416954 92.9944 0.0794412 92.6055 0.00568013C92.3331 -0.0468467 92.0915 0.276137 92.2387 0.511949C92.5593 1.02828 94.6847 3.32828 95.192 3.91725C95.5472 4.32964 96.0796 5.15331 96.6119 5.15331C97.1442 5.15331 97.4272 4.34082 97.5745 3.71273C97.6342 3.44339 97.3415 3.25228 97.2183 3.50598Z" fill="#191919"/>
<path d="M90.2997 2.06427C91.6146 2.8924 91.6098 3.50596 92.0738 3.50596C92.2509 3.50596 92.4001 3.32826 92.2509 3.09469C91.7658 2.43344 91.0997 1.98597 90.3642 1.82734C90.3394 1.82495 90.3146 1.83242 90.294 1.84851C90.2733 1.86461 90.258 1.88837 90.2505 1.91592C90.243 1.94346 90.2437 1.97314 90.2527 2.0001C90.2616 2.02705 90.2782 2.04968 90.2997 2.06427Z" fill="#191919"/>
<path d="M88.8806 4.94782C89.4397 5.04355 89.9799 5.25275 90.4766 5.56585C90.8722 5.77484 91.0031 6.01288 91.186 5.77148C91.3689 5.53008 90.9868 5.14787 90.6537 4.94782C90.1201 4.58086 89.4947 4.43581 88.8806 4.53655C88.587 4.5399 88.5831 4.95341 88.8806 4.94782Z" fill="#191919"/>
<path d="M88.5254 8.24247C91.2351 9.37795 92.8504 9.44612 93.6696 10.7146C94.1516 11.5638 94.5672 12.4615 94.9114 13.3968C95.3588 14.4176 95.8935 15.3835 96.5074 16.2802C96.6854 16.4858 97.0397 16.2802 97.0397 15.8678C96.6937 14.7367 96.2787 13.6357 95.7979 12.5731C95.0538 10.4117 94.1615 9.10861 92.0736 8.66157C91.0147 8.43805 89.9462 8.03572 88.8806 7.83791C88.3435 7.73509 88.331 8.16201 88.5254 8.24247Z" fill="#191919"/>
<path d="M113.004 25.7481C111.762 24.9234 111.091 22.9542 109.811 22.4524C109.506 22.2835 109.173 22.1958 108.835 22.1958C108.498 22.1958 108.164 22.2835 107.86 22.4524C107.587 22.647 107.362 22.9198 107.207 23.2446C107.052 23.5693 106.971 23.935 106.972 24.3064C106.972 24.7177 107.327 24.7177 107.505 24.3064C107.625 24.039 107.796 23.8063 108.004 23.6253C108.212 23.4443 108.453 23.3196 108.708 23.2604C108.963 23.2011 109.226 23.2088 109.478 23.2829C109.73 23.357 109.965 23.4955 110.165 23.6884C110.9 24.3869 111.541 25.7347 113.004 26.1594C113.004 26.1594 113.229 25.8644 113.004 25.7481Z" fill="#191919"/>
<path d="M108.569 21.0111C109.135 20.8098 109.732 20.7609 110.316 20.868C110.899 20.9751 111.454 21.2354 111.939 21.6291C113.372 22.7389 113.45 24.9237 113.89 24.9237C113.982 24.9158 114.068 24.8699 114.133 24.7945C114.198 24.719 114.238 24.619 114.245 24.5125C114.245 23.2831 112.928 21.6403 112.116 21.0111C111.573 20.5772 110.937 20.3281 110.279 20.2917C109.621 20.2554 108.967 20.4333 108.391 20.8054C108.391 20.8054 108.392 21.2178 108.569 21.0111Z" fill="#191919"/>
<path d="M114.955 21.2175C115.318 21.8064 115.555 22.4867 115.647 23.2025C115.74 23.9183 115.685 24.6494 115.487 25.3358C115.487 25.5414 114.955 26.7775 115.665 26.5719C116.374 26.1595 116.463 24.7334 116.374 23.6885C116.243 22.6961 115.874 21.7665 115.31 21.0063C115.132 20.8107 114.851 21.0621 114.955 21.2175Z" fill="#191919"/>
<path d="M111.94 30.4849C111.109 30.4444 110.276 30.4971 109.454 30.6425C109.105 30.7084 109.103 31.1029 109.454 31.1029H110.341C110.316 31.3758 110.352 31.6515 110.445 31.9038C110.538 32.156 110.685 32.3763 110.873 32.5435C111.76 32.9559 112.293 32.1322 112.293 31.1029C112.473 30.6905 112.296 30.4849 111.94 30.4849ZM111.231 31.7142C111.164 31.6332 111.113 31.5358 111.082 31.429C111.052 31.3223 111.042 31.209 111.054 31.0973H111.763C111.763 31.8159 111.676 31.7198 111.231 31.7198V31.7142Z" fill="#191919"/>
<path d="M111.322 29.2968C111.349 29.2822 111.373 29.2612 111.392 29.235C111.412 29.2088 111.427 29.178 111.435 29.1448C111.597 28.5768 111.707 27.9905 111.762 27.3958C111.734 26.9364 111.369 27.2035 111.23 27.6014C111.081 28.0283 111.015 28.2787 110.875 28.6307C110.814 28.8307 110.814 29.0487 110.875 29.2487C110.933 29.4253 111.034 29.451 111.322 29.2968Z" fill="#191919"/>
<path d="M122.229 50.048C124.942 53.0286 127.784 55.8471 130.743 58.4925C131.732 59.2569 132.572 60.3678 133.581 60.7579C133.758 60.7579 133.936 60.5511 133.758 60.3455C133.4 59.7219 122.68 49.7284 122.583 49.6367C122.229 49.6367 122.051 49.8424 122.229 50.048Z" fill="#191919"/>
<path d="M146.529 45.3119C145.366 45.4918 142.225 46.4049 141.261 46.1333C130.976 43.2331 127.896 38.0531 121.695 35.0155C120.003 34.1608 118.209 33.6055 116.374 33.3682C115.842 33.5738 115.842 33.7794 116.019 33.7794C124.476 35.3295 128.037 42.2508 137.536 45.9277C141.589 47.4923 142.08 47.4196 144.222 46.7536C144.929 46.53 145.642 46.3456 146.352 46.1355C147.048 45.9393 147.766 45.8699 148.48 45.9299C148.801 45.9299 148.698 44.9777 146.529 45.3119Z" fill="#191919"/>
<path d="M147.831 47.7505C147.838 47.7356 147.842 47.7189 147.843 47.7017C147.844 47.6845 147.842 47.6673 147.836 47.6514C147.831 47.6355 147.822 47.6214 147.811 47.61C147.799 47.5987 147.786 47.5906 147.772 47.5862C147.519 47.5147 147.343 47.9215 147.239 48.1953C146.32 50.6372 149.213 51.5179 150.254 52.726C150.972 53.5586 150.736 53.5452 150.928 53.6346C150.97 53.6595 151.017 53.6713 151.063 53.6687C151.11 53.6661 151.156 53.6493 151.195 53.6198C151.235 53.5904 151.267 53.5494 151.289 53.501C151.31 53.4526 151.32 53.3984 151.318 53.344C151.318 52.9629 150.492 51.8509 150.394 51.7391C149.363 50.5791 148.344 50.9747 147.731 49.257C147.657 49.0115 147.628 48.751 147.645 48.4917C147.662 48.2324 147.725 47.98 147.831 47.7505Z" fill="#191919"/>
<path d="M147.592 53.5496C148.303 54.3733 149.197 55.3948 149.903 56.2318C150.021 56.3727 150.632 56.5939 150.258 55.8195C149.625 54.7631 148.77 53.9124 147.774 53.3485C147.59 53.2278 147.415 53.344 147.592 53.5496Z" fill="#191919"/>
<path d="M146.884 58.0805C147.076 58.5275 147.489 58.77 147.416 57.6692C147.389 57.2579 146.529 54.7858 145.997 55.6095C146.221 56.4654 146.518 57.2932 146.884 58.0805Z" fill="#191919"/>
<path d="M65.643 24.9238C65.5391 24.9238 65.2176 24.9652 65.8211 26.3655C66.0895 27.1509 66.2103 27.9937 66.1754 28.8376C66.1224 29.1003 65.643 29.4333 65.643 29.8669C65.643 32.7604 65.7691 33.0644 65.1107 33.574C64.7141 33.7426 64.2913 33.8126 63.8699 33.7796C63.3376 33.7796 62.8053 33.574 62.0958 33.574C61.9187 33.574 61.9187 33.9853 61.9187 33.9853C62.4502 34.3564 63.0524 34.5695 63.6719 34.6055C64.2914 34.6416 64.9089 34.4996 65.4698 34.192C66.647 33.2801 66.0021 31.3533 66.0021 30.0726C66.1416 30.0875 66.2819 30.0568 66.4072 29.9842C66.5326 29.9115 66.638 29.7997 66.7115 29.6613C67.4913 28.0643 65.8221 25.1317 65.643 24.9238Z" fill="#191919"/>
<path d="M62.4504 29.8635C62.307 30.0632 62.2151 30.3058 62.1852 30.5634C62.1553 30.821 62.1886 31.0832 62.2813 31.3198C62.374 31.5564 62.5224 31.7578 62.7093 31.9009C62.8962 32.0441 63.114 32.1231 63.3379 32.1288C63.8115 32.0741 64.0993 31.8662 64.0473 31.3052C64.0233 31.0492 63.515 31.3052 63.1598 31.3052C62.9827 31.3052 62.8056 30.8928 62.8056 30.6871C62.8056 30.6905 62.9827 29.2488 62.4504 29.8635Z" fill="#191919"/>
<path d="M64.2242 23.0706C61.2853 23.0706 61.0158 26.8145 60.855 27.1889C60.6779 27.3956 60.1629 27.2358 59.7904 27.3956C57.5764 28.3445 58.8105 32.2605 60.4998 30.6903C60.855 30.2779 60.4998 29.4542 60.1456 29.8666C59.6133 30.2779 59.4362 29.2486 59.6133 28.8373C60.2149 27.4392 61.2074 29.0474 61.9235 27.3956C62.2412 26.287 62.3423 24.2094 64.5842 23.6886C64.4013 23.4829 64.4013 23.0706 64.2242 23.0706Z" fill="#191919"/>
<path d="M63.5144 21.4234C60.3542 20.7529 58.2085 27.283 59.7891 26.3654C60.6198 25.4009 60.1924 23.1244 63.5144 21.8347C63.6915 21.8347 63.6915 21.4234 63.5144 21.4234Z" fill="#191919"/>
<path d="M64.224 20.187C60.0751 19.2237 57.6609 23.884 57.6609 25.7482C57.6609 26.3852 58.5474 26.6568 58.5474 24.9234C58.9687 23.6327 59.7232 22.5246 60.7075 21.7506C61.6919 20.9766 62.8582 20.5746 64.0468 20.5994C64.4011 20.5994 64.4011 20.187 64.224 20.187Z" fill="#191919"/>
<path d="M58.5482 31.3084C58.5482 31.1028 58.3711 30.896 58.194 31.1028C57.863 31.7676 57.5669 32.4551 57.3074 33.1614C56.6971 33.3482 56.1281 33.6841 55.6386 34.1466C55.149 34.6092 54.7502 35.1877 54.4687 35.8436C53.8122 37.3691 57.2814 36.8572 57.6616 33.9895C58.1379 33.1912 58.442 32.2717 58.5482 31.3084Z" fill="#191919"/>
<path d="M55.1772 32.7502C55.9339 31.6677 56.5881 30.4938 57.1284 29.2488C57.1284 27.854 55.156 31.7198 54.8229 31.7198C54.3884 31.753 53.9651 31.8936 53.5812 32.1321C52.968 32.6451 51.8042 33.3615 52.3394 33.9851C53.0873 34.8535 55.1772 33.9583 55.1772 32.7502Z" fill="#191919"/>
<path d="M54.4686 30.0723C55.9182 29.2307 56.233 28.2305 56.9521 27.3901C57.1292 27.1833 56.775 26.772 56.5969 26.9777C56.2426 27.3901 54.4686 29.0374 53.9362 29.0374C53.7591 29.0374 52.8726 29.243 52.5173 29.243C51.4402 29.243 50.6451 30.2153 51.8079 30.8904C53.1844 31.695 54.4686 30.6255 54.4686 30.0723Z" fill="#191919"/>
<path d="M63.3372 26.1599C63.4537 26.0247 65.1662 24.9238 63.5143 24.9238C62.8453 24.9238 62.8935 26.6751 63.3372 26.1599Z" fill="#191919"/>
<path d="M78.5925 23.4832C77.5962 23.8676 77.625 24.3001 74.1577 26.9834C72.7812 27.9826 71.2381 28.7872 69.6893 29.7774C69.4766 29.9127 69.5728 30.2803 69.7239 30.2803C71.3958 29.6702 73.0025 28.8412 74.5129 27.8094C74.8883 27.5858 78.7234 24.4197 78.9477 24.1023C79.1065 23.8754 78.7696 23.4832 78.5925 23.4832Z" fill="#191919"/>
<path d="M80.7204 36.457C79.6925 37.156 78.6259 37.775 77.5274 38.3099C77.2646 38.4116 74.9486 39.556 74.8667 39.9573C74.5539 41.4962 79.4988 38.5178 81.0034 36.9398C81.0504 36.8926 81.0809 36.8271 81.089 36.7555C81.097 36.684 81.0822 36.6115 81.0472 36.5519C81.0123 36.4923 80.9597 36.4496 80.8994 36.4321C80.8391 36.4146 80.7754 36.4235 80.7204 36.457Z" fill="#191919"/>
<path d="M72.6896 44.515C72.8321 45.5756 73.0747 46.5512 73.2672 47.7828C73.4813 48.9087 73.7779 50.0113 74.1538 51.0786C78.0042 62.7809 73.6176 50.284 81.7815 72.0837C82.3138 73.3198 82.668 74.5558 83.2004 75.7908C83.7327 77.0257 84.0869 78.2629 84.6193 79.2922C84.7973 79.4978 84.9745 79.2922 84.9745 79.0865C84.7595 78.0279 84.4625 76.994 84.0869 75.9975C83.081 73.075 84.5442 77.247 80.1845 66.1124C76.4717 56.6274 75.9096 55.1321 73.9766 48.4008C73.6214 47.1659 73.4299 45.9511 72.9678 44.6781C72.8311 44.2926 72.6521 44.2378 72.6896 44.515Z" fill="#191919"/>
<path d="M58.7259 35.8391C54.1266 38.0374 49.5542 41.3991 44.7123 41.3991H42.2287C41.3422 41.3991 40.6327 41.1935 39.7462 41.1935C39.2138 41.1935 39.2138 41.8115 39.5681 42.0172C42.6484 43.2085 46.6606 42.1412 49.8565 41.3991C53.1518 40.2769 56.2673 38.5378 59.0802 36.2504C59.0731 36.144 59.0335 36.0441 58.9686 35.9687C58.9036 35.8933 58.8175 35.8473 58.7259 35.8391Z" fill="#191919"/>
<path d="M37.6161 58.4926C48.8497 58.8179 59.4163 51.2842 57.3062 51.2842C54.8372 52.2397 51.9426 54.8772 47.9044 55.8149C44.6045 56.899 41.2178 57.5892 37.797 57.8746C37.4389 58.0803 37.4389 58.4871 37.6161 58.4926Z" fill="#191919"/>
<path d="M39.5685 42.8408C38.3113 42.4754 37.5605 42.0898 37.0859 40.9878C37.0378 40.8761 34.8074 36.7198 34.0701 36.4571C32.683 35.9609 33.6475 37.2014 33.7149 37.2808C33.9902 37.5993 36.4006 42.1412 37.4402 43.0464C39.1296 44.354 40.0267 42.8408 39.5685 42.8408Z" fill="#191919"/>
<path d="M33.1826 38.5159C33.1826 40.3532 28.8692 37.4866 27.1509 37.4866C24.7444 37.4866 32.349 40.922 33.0045 40.1688C33.9277 39.81 33.1826 37.6777 33.1826 38.5159Z" fill="#191919"/>
<path d="M26.6191 42.0172C31.4476 42.0172 30.0489 41.3992 29.1017 41.3992C26.597 41.3992 26.1253 42.0172 26.6191 42.0172Z" fill="#191919"/>
<path d="M27.1508 45.3119C27.7563 44.9609 30.8203 44.3552 29.8124 43.8702C29.2214 43.5863 25.626 45.3119 27.1508 45.3119Z" fill="#191919"/>
<path d="M84.9785 22.0403C85.5754 21.6234 86.975 18.0259 86.7526 16.6859C86.7189 16.4836 86.3974 16.2735 86.2203 16.4791C85.5817 18.1484 85.0489 19.8696 84.6262 21.629C84.6262 21.8346 84.8024 22.1643 84.9785 22.0403Z" fill="#191919"/>
<path d="M88.3478 16.0688C88.3478 16.6869 87.9627 17.6022 88.702 17.9218C89.3884 18.2168 90.1459 17.5496 90.6783 17.1395C91.6114 16.617 92.4951 15.9829 93.3149 15.2474C93.49 14.6283 92.7527 14.6484 92.5448 14.8127C92.3368 14.9769 89.3296 17.0311 89.2334 17.1004C89.0861 17.2121 89.0563 17.306 88.8791 17.306C88.5239 17.306 88.5682 16.5472 88.5904 16.2566C88.6231 15.8777 88.3478 15.8621 88.3478 16.0688Z" fill="#191919"/>
<path d="M95.2391 17.0682C95.189 17.0101 95.1286 16.9656 95.062 16.9378C94.9955 16.91 94.9244 16.8996 94.854 16.9072C93.8029 17.0279 91.6572 18.0718 92.0759 18.7457C92.3079 19.1201 92.6535 18.8686 92.8643 18.7088C94.5797 17.3956 95.3141 17.6571 95.4046 17.4046C95.4489 17.2727 95.3546 17.2023 95.2391 17.0682Z" fill="#191919"/>
<path d="M95.0884 20.1871C94.5793 20.1098 94.0618 20.1619 93.5718 20.3398C93.0818 20.5177 92.631 20.8172 92.2506 21.2175C92.0735 21.4231 92.2506 21.6288 92.4277 21.6288C92.524 21.6288 94.9921 20.861 95.0884 20.8051C95.2665 20.5995 95.4426 20.2217 95.0884 20.1871Z" fill="#191919"/>
<path d="M93.3146 24.0999C93.1358 24.0328 92.9458 24.0166 92.7605 24.0525C92.5752 24.0885 92.4001 24.1757 92.2499 24.3066C87.9548 24.2027 88.2503 23.8652 87.2203 24.0697C85.9709 24.3407 84.784 24.9117 83.7356 25.7461C83.6801 27.9732 83.9194 30.197 84.4451 32.3399C84.6222 32.9579 84.9774 33.3703 85.5097 33.1635C85.991 32.7891 86.6831 25.8891 86.3135 25.1415C88.0395 24.7235 88.8355 25.3382 91.3624 25.3382C92.1141 25.4549 92.8758 25.2339 93.4917 24.7201C93.6736 24.5123 93.4917 24.3055 93.3146 24.0999Z" fill="#191919"/>
<path d="M67.9494 43.0507C71.6737 52.3178 72.1474 62.6343 74.5125 72.5004C74.8581 73.9443 75.195 75.1826 75.5714 76.6187C75.8488 77.9435 76.3298 79.1993 76.9912 80.3258C77.1683 80.5325 77.3454 80.3258 77.3454 80.1201C77.3454 78.2068 76.0835 76.4745 75.5714 72.9128C75.0448 70.4317 74.4701 67.973 73.9802 65.4942C72.7442 59.2357 71.4774 49.4657 68.1265 42.8406C68.0399 42.6696 67.8406 42.8406 67.9494 43.0507Z" fill="#191919"/>
<path d="M97.2179 102.564C99.5089 103.45 98.8707 103.135 102.184 104.417C102.75 104.672 103.351 104.812 103.958 104.829C104.312 104.829 104.312 104.211 104.135 104.004C103.668 103.618 103.112 103.403 102.539 103.388C102.029 103.152 101.49 103.013 100.942 102.975C99.8834 102.77 98.6368 102.357 97.5731 102.151C97.0437 101.739 96.8627 102.357 97.2179 102.564Z" fill="#FFCA2D"/>
<path d="M136.241 107.3C136.09 107.195 137.131 107.817 132.339 105.035C131.613 104.494 131.066 103.684 130.786 102.737C130.984 102.671 131.055 102.513 130.92 102.357C130.42 100.233 130.077 97.9245 129.597 95.7754C130.523 95.5525 131.438 95.275 132.339 94.9439C133.439 94.6702 134.51 94.2557 135.532 93.7079C135.886 93.5022 135.709 92.8842 135.177 92.8842C132.514 93.5022 133.095 94.0018 129.324 94.7372C125.407 95.6715 121.431 96.2321 117.435 96.4136C117.376 94.5785 116.382 94.1225 114.956 84.6487C114.231 79.843 113.851 73.361 113.243 64.8785C113.243 64.8226 113.183 64.7913 113.182 64.8785C113.209 73.3124 113.921 81.7246 115.31 90.0031C115.692 92.1827 116.177 94.3362 116.764 96.4538C111.774 96.7343 105.368 96.6527 100.592 94.9462C100.414 94.9462 100.237 95.1518 100.414 95.3574C102.936 96.2725 105.532 96.8921 108.161 97.207C108.084 97.644 108.219 97.2171 108.219 99.8893C108.254 100.862 108.373 101.828 108.574 102.773C108.574 102.884 108.766 102.969 109.072 103.03C108.709 104.624 108.121 106.137 107.332 107.509C106.977 108.127 106.445 108.745 106.09 109.362C105.575 110.036 105.156 110.801 104.848 111.628C104.848 111.834 104.848 112.04 105.204 112.245C108.219 112.863 109.993 109.563 112.299 108.127C112.83 107.921 113.54 107.715 113.718 107.098C114.237 105.892 112.932 104.599 112.37 103.168C112.719 103.123 113.066 103.052 113.407 102.956C113.744 102.863 113.517 102.305 113.541 101.537C113.553 101.17 113.541 98.8421 113.541 97.6105C117.229 97.7368 120.92 97.4829 124.57 96.8516C124.913 99.1308 125.376 101.383 125.957 103.596C125.957 103.802 126.136 104.008 126.49 104.008C126.808 103.962 127.117 103.905 127.423 103.838C127.379 104.734 127.245 105.62 127.022 106.48C126.978 106.683 126.972 106.895 127.002 107.102C127.033 107.308 127.101 107.505 127.201 107.68C127.301 107.854 127.432 108.003 127.585 108.115C127.737 108.227 127.908 108.302 128.087 108.333C128.722 108.579 130.199 108.639 131.279 108.951C132.258 109.304 133.271 109.511 134.295 109.569C138.428 109.565 137.044 107.854 136.241 107.3ZM112.83 106.888C112.83 107.094 112.476 107.3 112.299 107.3C111.944 107.506 111.763 107.498 111.411 107.711C109.576 108.829 107.927 111.797 105.557 111.698C105.87 111.09 106.226 110.515 106.623 109.977C106.977 109.359 107.509 108.535 107.864 107.918C108.574 106.476 109.46 104.829 109.283 103.181C109.351 102.948 109.059 103.181 111.593 103.181C111.84 104.125 112.197 105.026 112.657 105.856C112.775 105.986 112.855 106.155 112.886 106.34C112.917 106.525 112.898 106.716 112.83 106.888ZM112.653 102.151C112.476 102.151 112.121 102.357 111.944 102.357C111.063 102.506 110.173 102.576 109.283 102.564C109.283 102.452 108.928 100.176 108.928 99.8814C108.881 99.003 108.791 98.1283 108.658 97.2618C109.986 97.4172 111.318 97.5144 112.653 97.5703V102.151ZM126.666 103.181C126.221 101.889 125.076 96.874 125.048 96.7622C127.156 96.3733 128.311 96.0313 128.855 95.9319C129.207 98.0732 129.701 100.204 130.037 102.151C128.942 102.615 127.812 102.958 126.662 103.177L126.666 103.181ZM135.003 109.153C133.046 109.257 131.278 108.329 129.505 108.124C128.891 108.187 128.275 108.044 127.731 107.711C127.376 107.506 127.553 107.094 127.553 106.476C127.826 105.609 127.881 104.669 127.711 103.767C128.528 103.562 129.333 103.293 130.118 102.96C130.406 103.718 130.796 104.418 131.273 105.035C131.667 105.557 132.15 105.978 132.693 106.271C132.856 106.365 136.351 108.462 136.595 108.742C136.5 108.779 136.387 109.08 134.999 109.153H135.003Z" fill="#191919"/>
<path d="M86.9292 81.7629C86.2198 80.9393 84.8038 81.1706 83.7362 81.3517C76.0046 82.6604 67.291 90.2555 55.7099 94.737C54.2519 95.4537 52.6687 95.76 51.0893 95.6311C51.3406 94.7303 51.5129 93.7379 51.8065 92.8863C53.4169 81.6713 54.3795 67.2354 55.1756 55.1989C54.9985 54.9933 54.6433 54.9933 54.6433 55.1989C53.2552 67.4086 52.5843 79.5702 50.919 92.0626C50.6776 93.2284 50.5466 94.4212 50.5281 95.6199C50.3356 95.7317 50.2913 95.9753 50.5638 95.9753C50.5638 96.181 50.919 96.3877 50.919 96.181L50.9411 96.1139C53.1137 96.8124 55.3922 95.8736 57.4493 94.984C57.4137 98.0898 58.1915 101.516 58.1915 105.655C58.3572 107.481 58.1128 109.325 57.482 111.009C56.7726 112.862 55.6733 114.488 54.8214 116.364C54.707 116.537 54.6309 116.74 54.5998 116.955C54.5688 117.171 54.5837 117.391 54.6433 117.598C54.6433 118.629 55.527 118.814 56.2403 118.629C57.0447 118.267 57.7712 117.704 58.3686 116.982C59.2552 115.746 60.1427 114.509 61.0293 113.07C61.0293 113.07 62.0939 114.306 62.4481 113.277C62.4481 111.089 62.0939 110.069 62.0939 108.746C62.0939 107.735 62.6262 103.717 62.6262 101.332C62.7927 98.4206 62.9602 95.3283 63.1268 92.3912C65.2185 91.3742 67.1351 90.3729 68.9024 89.4184C69.968 95.7976 72.5546 107.17 72.5546 107.3C72.3141 108.654 72.2543 110.043 72.3775 111.418C72.3775 112.036 73.0869 112.242 73.4363 111.625C73.6093 111.168 73.8493 110.75 74.1458 110.389C74.3239 110.595 74.501 110.8 74.501 111.007C75.0787 111.914 75.8013 112.683 76.6293 113.272C77.332 113.94 78.1091 114.494 78.9396 114.92C79.1092 115.043 79.3007 115.119 79.4997 115.144C79.6986 115.168 79.8997 115.139 80.0877 115.06C80.2757 114.981 80.4456 114.852 80.5846 114.685C80.7236 114.518 80.8279 114.317 80.8898 114.096C80.7233 112.992 80.3611 111.94 79.8261 111.007C79.2784 110.075 78.6861 109.18 78.052 108.325C77.3666 107.557 76.9283 106.539 76.8103 105.441C76.456 103.588 76.3049 101.523 75.9237 99.4689C75.4251 96.7867 75.0882 94.1045 74.6819 91.4379C74.5866 89.8115 74.361 88.1989 74.0081 86.6211C78.0309 84.4295 81.2546 82.8123 84.2599 82.3743C84.8476 82.2714 85.4453 82.2714 86.033 82.3743C86.9206 82.7855 86.3882 83.8159 86.033 84.434C85.8559 84.6396 86.2111 85.052 86.3882 84.8452C87.1063 84.235 87.8158 82.7922 86.9292 81.7629ZM60.1446 110.8C59.772 111.572 59.2927 112.268 58.7257 112.86C58.1934 113.478 57.6611 114.302 56.9516 114.507C57.207 113.93 57.5036 113.379 57.8382 112.86C58.3585 111.748 58.7748 110.574 59.08 109.358C59.5516 106.622 58.976 101.95 58.5476 98.2385C58.4042 96.9868 58.3763 95.8915 58.1405 94.6834C59.7557 93.986 61.2824 93.2879 62.7206 92.589C60.4642 112.274 61.0225 108.765 60.1446 110.8ZM74.6896 97.6204C74.86 99.8869 75.222 102.151 75.3991 104.417C75.4383 105.051 75.558 105.676 75.7543 106.271C76.1418 107.561 76.7443 108.75 77.5274 109.771C77.8826 110.183 78.7692 111.007 78.7692 111.625C78.0597 111.831 77.359 110.991 76.818 110.595C75.9748 109.87 75.2018 109.042 74.5125 108.124C74.3354 107.711 73.9802 107.506 73.8031 107.094C73.8031 106.682 73.625 106.476 73.4479 106.064C72.9711 103.557 72.3789 101.082 71.6738 98.6497C71 95.5015 70.1557 92.3521 69.3087 89.2027C70.768 88.4137 72.1301 87.6593 73.4103 86.9575C73.4519 87.2281 73.5241 87.4911 73.625 87.7398C74.1222 91.0106 74.4776 94.3083 74.6896 97.6204Z" fill="#191919"/>
<path d="M105.732 33.9852C100.767 23.738 100.497 19.7571 98.595 13.1164C98.3613 12.1344 98.2555 11.1173 98.2812 10.0989C98.2812 7.52846 99.2506 6.85791 99.7001 4.53891C99.8609 3.70965 100.164 2.60771 99.7001 1.85669C99.67 1.80733 99.6301 1.76708 99.5838 1.7393C99.5375 1.71152 99.4861 1.69702 99.434 1.69702C99.3818 1.69702 99.3305 1.71152 99.2842 1.7393C99.2379 1.76708 99.198 1.80733 99.1678 1.85669C98.9753 2.25902 99.1678 2.68035 99.1678 3.29838C99.0434 4.73752 98.6823 6.13557 98.1041 7.4167C97.6911 9.16929 97.6911 11.0185 98.1041 12.7711C98.4102 16.3608 96.8623 17.912 96.8623 18.7435C96.8618 18.7707 96.866 18.7977 96.8748 18.8229C96.8835 18.8481 96.8965 18.871 96.9131 18.8903C96.9296 18.9095 96.9493 18.9246 96.9711 18.9347C96.9928 18.9448 97.0161 18.9497 97.0395 18.9491C97.4178 18.6279 97.7226 18.2039 97.927 17.7142C99.0301 15.4969 98.0117 14.0977 99.3459 18.7435C100.917 24.2141 102.591 29.4981 105.554 34.1897C105.732 34.3976 105.909 34.192 105.732 33.9852Z" fill="#191919"/>
<path d="M182.716 182.88C179.912 182.415 179.555 183.035 174.734 182.262C170.954 181.752 167.357 180.093 164.305 177.454C161.253 174.815 158.854 171.288 157.351 167.229C156.798 165.73 156.497 164.122 156.464 162.491C156.464 162.286 156.641 162.286 156.819 162.286C157.573 163.941 158.597 165.41 159.834 166.611C161.507 168.206 163.438 169.396 165.514 170.111C167.355 170.878 169.257 171.43 171.193 171.76L171.725 172.989C172.115 174.097 172.237 175.307 172.08 176.49C172.013 177.695 171.774 178.878 171.371 179.991C171.193 180.609 171.725 180.815 172.08 180.403C173.499 178.961 173.499 176.285 173.322 174.225C173.169 173.53 172.991 172.843 172.79 172.165C173.872 172.502 174.893 173.06 175.806 173.813C176.3 174.188 176.72 174.683 177.037 175.262C177.399 175.834 177.698 176.457 177.924 177.116C177.968 177.196 178.032 177.257 178.107 177.292C178.182 177.327 178.265 177.334 178.344 177.311C178.422 177.288 178.493 177.237 178.545 177.165C178.597 177.093 178.628 177.003 178.634 176.909C178.457 174.644 176.516 172.551 174.909 171.762C174.002 171.287 173.049 170.941 172.071 170.731C171.699 170.012 171.284 169.324 170.829 168.673C167.86 164.734 163.721 163.532 160.364 161.67C158.574 160.679 156.816 158.788 156.461 156.522C156.865 152.144 156.924 147.732 156.638 143.341C155.399 109.367 137.515 112.751 125.774 110.186C122.765 109.528 119.921 109.155 116.906 108.332C116.825 108.339 116.748 108.375 116.686 108.435C116.624 108.496 116.58 108.578 116.56 108.669C116.54 108.76 116.546 108.856 116.576 108.944C116.606 109.031 116.659 109.105 116.728 109.155C129.129 113.421 136.481 111.767 143.867 115.952C147.498 118.137 150.377 121.697 152.026 126.042C155.601 134.738 155.715 149.657 154.865 159.199C154.687 159.817 154.687 160.435 154.51 161.053C152.007 169.757 149.899 178.334 153.623 186.589C154.23 187.836 154.943 189.009 155.752 190.09C156.299 190.926 157.036 191.567 157.881 191.941C158.236 192.147 158.59 191.735 158.236 191.323C157.704 190.499 156.994 189.881 156.462 189.058C155.93 188.234 155.397 187.205 154.866 186.381C151.636 179.631 152.833 172.342 154.334 165.37C154.511 164.752 154.675 164.34 154.334 169.282C154.117 171.918 154.358 174.579 155.043 177.105C156.552 182.358 160.005 183.348 163.735 187.196C165.509 189.255 166.218 192.138 166.572 195.019C166.572 195.431 167.283 195.431 167.283 194.813C167.412 192.211 166.855 189.624 165.686 187.399C164.484 185.309 162.816 184.158 161.074 182.663C156.324 178.593 155.847 176.566 155.395 170.307V164.757C155.395 164.551 155.597 164.339 155.927 165.993C156.634 168.982 157.84 171.781 159.475 174.231C162.758 179.252 168.004 182.165 173.311 183.292C175.588 183.806 177.909 184.014 180.228 183.91C181.009 183.874 181.784 183.735 182.538 183.498C182.893 183.498 183.071 183.085 182.716 182.88ZM157.881 161.256C159.474 162.709 161.276 163.825 163.202 164.551C165.936 165.665 168.337 167.667 170.121 170.318C169.411 170.111 168.523 169.91 167.81 169.7C163.726 168.488 159.474 166.405 157.345 161.877C157.173 161.051 157.35 160.638 157.881 161.256Z" fill="#FFCA2D"/>
<path d="M63.5146 27.3956C63.5146 27.4768 63.5284 27.5571 63.5552 27.6321C63.5819 27.7071 63.6211 27.7752 63.6706 27.8326C63.72 27.89 63.7787 27.9355 63.8433 27.9666C63.9078 27.9977 63.9771 28.0136 64.047 28.0136C64.1169 28.0136 64.1861 27.9977 64.2507 27.9666C64.3153 27.9355 64.374 27.89 64.4234 27.8326C64.4728 27.7752 64.512 27.7071 64.5388 27.6321C64.5655 27.5571 64.5793 27.4768 64.5793 27.3956C64.5793 27.3145 64.5655 27.2341 64.5388 27.1591C64.512 27.0841 64.4728 27.016 64.4234 26.9586C64.374 26.9012 64.3153 26.8557 64.2507 26.8246C64.1861 26.7936 64.1169 26.7776 64.047 26.7776C63.9771 26.7776 63.9078 26.7936 63.8433 26.8246C63.7787 26.8557 63.72 26.9012 63.6706 26.9586C63.6211 27.016 63.5819 27.0841 63.5552 27.1591C63.5284 27.2341 63.5146 27.3145 63.5146 27.3956Z" fill="#191919"/>
<path d="M81.7853 36.0448C81.8836 36.1442 82.0096 36.199 82.14 36.199C82.2704 36.199 82.3964 36.1442 82.4948 36.0448C82.9991 35.6838 83.4741 35.2701 83.9136 34.8087C84.2688 34.3975 84.8012 33.9851 85.1554 33.5738C85.5106 33.3682 85.8649 32.5434 85.3325 32.3377C85.103 32.2447 84.8994 32.0814 84.7433 31.8649C84.5872 31.6485 84.4845 31.3871 84.446 31.1084C83.9993 29.432 84.0908 27.5846 84.0908 23.0763C84.1798 22.1179 84.1798 21.1512 84.0908 20.1929C83.7365 19.3692 82.4948 20.3985 82.1396 20.8109C81.4301 21.4289 80.3664 22.047 80.0112 23.0763C79.4596 26.5944 79.4279 33.6956 81.7853 36.0448Z" fill="#FFCA2D"/>
<path d="M113.004 27.6013C113.473 27.6013 113.473 28.8374 113.004 28.8374C112.535 28.8374 112.534 27.6013 113.004 27.6013Z" fill="#191919"/>
<path d="M109.989 26.7776C110.459 26.7776 110.459 28.0125 109.989 28.0125C109.519 28.0125 109.519 26.7776 109.989 26.7776Z" fill="#191919"/>
</svg>
