<svg width="21" height="20" viewBox="0 0 21 20" fill="none" xmlns="http://www.w3.org/2000/svg">
<rect width="21" height="20" rx="5" fill="#0B5CFF"/>
<path d="M6.43868 11.455H3.947C3.78382 11.455 3.62459 11.3725 3.54896 11.2338C3.46143 11.0725 3.49323 10.8813 3.62856 10.7575L5.36401 9.12251H4.11815C3.77583 9.12251 3.50119 8.85999 3.50119 8.54122H5.79785C5.96104 8.54122 6.12023 8.62373 6.19587 8.76249C6.28345 8.92373 6.25159 9.11498 6.11627 9.23872L4.38084 10.8738H5.81776C6.16005 10.8738 6.43868 11.1363 6.43868 11.455ZM16.3019 8.5C15.9437 8.5 15.6252 8.64625 15.4023 8.87875C15.1794 8.64625 14.861 8.5 14.5028 8.5C13.8421 8.5 13.3007 9.03249 13.3007 9.655V11.455C13.643 11.455 13.9177 11.1925 13.9177 10.8738V9.65126C13.9177 9.35124 14.1644 9.09625 14.4829 9.08502C14.8172 9.07376 15.0919 9.32499 15.0919 9.63624V10.8738C15.0919 11.1963 15.3705 11.455 15.7088 11.455V9.6475C15.7088 9.34751 15.9556 9.09249 16.274 9.08126C16.6084 9.07 16.883 9.32126 16.883 9.63251V10.87C16.883 11.1925 17.1617 11.4513 17.5 11.4513V9.65129C17.5039 9.03249 16.9626 8.5 16.3019 8.5ZM9.55923 10C9.55923 10.8288 8.84676 11.5 7.96711 11.5C7.08747 11.5 6.375 10.8288 6.375 10C6.375 9.17125 7.08747 8.5 7.96711 8.5C8.84676 8.5 9.55923 9.17125 9.55923 10ZM8.94228 10C8.94228 9.49376 8.50445 9.08126 7.96711 9.08126C7.42978 9.08126 6.99193 9.49376 6.99193 10C6.99193 10.5063 7.42978 10.9188 7.96711 10.9188C8.50445 10.9188 8.94228 10.5063 8.94228 10ZM12.9902 10C12.9902 10.8288 12.2778 11.5 11.3981 11.5C10.5185 11.5 9.80601 10.8288 9.80601 10C9.80601 9.17125 10.5185 8.5 11.3981 8.5C12.2778 8.5 12.9902 9.17125 12.9902 10ZM12.3733 10C12.3733 9.49376 11.9355 9.08126 11.3982 9.08126C10.8609 9.08126 10.423 9.49376 10.423 10C10.423 10.5063 10.8608 10.9188 11.3982 10.9188C11.9355 10.9188 12.3733 10.5063 12.3733 10Z" fill="white"/>
</svg>
